<svg width="48" height="20" viewBox="0 0 48 20" fill="none" xmlns="http://www.w3.org/2000/svg">
<path d="M0.793324 19V0.818181H12.4411V3.57919H4.087V8.51527H11.642V11.2763H4.087V19H0.793324ZM18.5135 0.818181V19H15.2997V0.818181H18.5135ZM27.8552 19.2663C26.488 19.2663 25.3073 18.9822 24.3129 18.4141C23.3245 17.84 22.564 17.0291 22.0313 15.9815C21.4987 14.928 21.2323 13.6881 21.2323 12.2617C21.2323 10.859 21.4987 9.62796 22.0313 8.56854C22.5699 7.5032 23.3216 6.6746 24.2863 6.08274C25.251 5.48497 26.3844 5.18608 27.6865 5.18608C28.527 5.18608 29.32 5.32221 30.0658 5.59446C30.8174 5.86079 31.4803 6.27509 32.0544 6.83736C32.6344 7.39962 33.0902 8.11577 33.4216 8.9858C33.753 9.84991 33.9188 10.8797 33.9188 12.0753V13.0607H22.7416V10.8945H30.8382C30.8322 10.279 30.6991 9.73153 30.4387 9.25213C30.1782 8.76681 29.8142 8.38506 29.3467 8.10689C28.885 7.82872 28.3464 7.68963 27.7309 7.68963C27.074 7.68963 26.4969 7.84943 25.9997 8.16903C25.5026 8.48272 25.1149 8.89702 24.8367 9.41193C24.5645 9.92093 24.4254 10.4802 24.4195 11.0898V12.9808C24.4195 13.7739 24.5645 14.4545 24.8545 15.0227C25.1445 15.585 25.5499 16.017 26.0708 16.3189C26.5916 16.6148 27.2012 16.7628 27.8996 16.7628C28.3672 16.7628 28.7903 16.6977 29.1691 16.5675C29.5479 16.4313 29.8764 16.2331 30.1546 15.9727C30.4327 15.7122 30.6428 15.3897 30.7849 15.005L33.7856 15.3423C33.5962 16.1354 33.2352 16.8279 32.7025 17.4197C32.1758 18.0057 31.501 18.4614 30.6784 18.7869C29.8557 19.1065 28.9146 19.2663 27.8552 19.2663ZM38.9725 5.36364L41.7246 10.3974L44.5211 5.36364H47.9213L43.8109 12.1818L47.9924 19H44.6099L41.7246 14.0906L38.8659 19H35.4569L39.6117 12.1818L35.5634 5.36364H38.9725Z" fill="#FF5D3A"/>
</svg>
