<svg width="49" height="21" viewBox="0 0 49 21" fill="none" xmlns="http://www.w3.org/2000/svg">
<path d="M12.9737 7.62429C12.8258 7.14489 12.6216 6.71579 12.3612 6.337C12.1067 5.9523 11.7989 5.62382 11.4379 5.35156C11.0827 5.07931 10.6744 4.87512 10.2127 4.73899C9.75107 4.59695 9.24799 4.52592 8.70348 4.52592C7.72692 4.52592 6.85689 4.77154 6.0934 5.26278C5.3299 5.75402 4.72917 6.47609 4.29119 7.42898C3.85914 8.37595 3.64311 9.53007 3.64311 10.8913C3.64311 12.2644 3.85914 13.4274 4.29119 14.3803C4.72325 15.3332 5.32398 16.0582 6.0934 16.5554C6.86281 17.0466 7.75651 17.2923 8.7745 17.2923C9.6978 17.2923 10.4968 17.1147 11.1715 16.7596C11.8522 16.4045 12.3759 15.9014 12.7429 15.2504C13.1098 14.5934 13.2933 13.824 13.2933 12.9421L14.0391 13.0575H9.10298V10.483H16.4805V12.6669C16.4805 14.2235 16.149 15.57 15.4862 16.7063C14.8233 17.8427 13.9118 18.7186 12.7518 19.3342C11.5917 19.9438 10.2601 20.2486 8.75675 20.2486C7.0818 20.2486 5.61103 19.8728 4.34446 19.1211C3.08381 18.3635 2.09837 17.2893 1.38814 15.8984C0.683831 14.5017 0.331676 12.8445 0.331676 10.9268C0.331676 9.45904 0.538826 8.14808 0.953125 6.99396C1.37334 5.83984 1.95928 4.86032 2.71094 4.0554C3.46259 3.24455 4.34446 2.62902 5.35653 2.20881C6.36861 1.78267 7.46946 1.5696 8.65909 1.5696C9.66525 1.5696 10.6033 1.71757 11.4734 2.01349C12.3434 2.3035 13.1158 2.7178 13.7905 3.25639C14.4711 3.79498 15.0304 4.43418 15.4684 5.174C15.9064 5.91383 16.1934 6.73059 16.3295 7.62429H12.9737ZM19.5233 20V6.36364H22.6395V8.63636H22.7815C23.0301 7.8492 23.4562 7.24254 24.0599 6.81641C24.6695 6.38435 25.365 6.16832 26.1462 6.16832C26.3238 6.16832 26.522 6.1772 26.741 6.19496C26.9659 6.20679 27.1524 6.22751 27.3003 6.2571V9.21342C27.1642 9.16607 26.9482 9.12464 26.6523 9.08913C26.3622 9.0477 26.0811 9.02699 25.8089 9.02699C25.2229 9.02699 24.6962 9.15424 24.2286 9.40874C23.767 9.65731 23.403 10.0036 23.1366 10.4474C22.8703 10.8913 22.7371 11.4033 22.7371 11.9833V20H19.5233ZM29.4355 20V6.36364H32.6492V20H29.4355ZM31.0512 4.42827C30.5422 4.42827 30.1043 4.25959 29.7373 3.92223C29.3704 3.57895 29.1869 3.16761 29.1869 2.68821C29.1869 2.20289 29.3704 1.79155 29.7373 1.45419C30.1043 1.11091 30.5422 0.939275 31.0512 0.939275C31.5661 0.939275 32.0041 1.11091 32.3651 1.45419C32.7321 1.79155 32.9156 2.20289 32.9156 2.68821C32.9156 3.16761 32.7321 3.57895 32.3651 3.92223C32.0041 4.25959 31.5661 4.42827 31.0512 4.42827ZM41.0144 20.2397C39.9431 20.2397 38.9843 19.9645 38.138 19.4141C37.2916 18.8636 36.6228 18.0646 36.1316 17.017C35.6403 15.9695 35.3947 14.697 35.3947 13.1996C35.3947 11.6844 35.6433 10.406 36.1404 9.36435C36.6435 8.31676 37.3212 7.52663 38.1735 6.99396C39.0257 6.45537 39.9757 6.18608 41.0233 6.18608C41.8223 6.18608 42.4792 6.32221 42.9941 6.59446C43.5091 6.86079 43.9174 7.18336 44.2193 7.56214C44.5211 7.93501 44.7549 8.28717 44.9206 8.61861H45.0538V1.81818H48.2765V20H45.1159V17.8516H44.9206C44.7549 18.183 44.5152 18.5352 44.2015 18.908C43.8878 19.275 43.4735 19.5887 42.9586 19.8491C42.4437 20.1095 41.7956 20.2397 41.0144 20.2397ZM41.911 17.603C42.5917 17.603 43.1717 17.4195 43.6511 17.0526C44.1305 16.6797 44.4945 16.1618 44.7431 15.4989C44.9917 14.8361 45.1159 14.0637 45.1159 13.1818C45.1159 12.3 44.9917 11.5335 44.7431 10.8825C44.5004 10.2314 44.1394 9.72538 43.66 9.36435C43.1865 9.00331 42.6035 8.8228 41.911 8.8228C41.1949 8.8228 40.5971 9.00923 40.1177 9.3821C39.6383 9.75497 39.2773 10.2699 39.0346 10.9268C38.792 11.5838 38.6706 12.3355 38.6706 13.1818C38.6706 14.0341 38.792 14.7946 39.0346 15.4634C39.2832 16.1263 39.6472 16.6501 40.1266 17.0348C40.6119 17.4136 41.2067 17.603 41.911 17.603Z" fill="#FFEF07"/>
</svg>
