<?xml version="1.0" encoding="utf-8"?><!DOCTYPE svg PUBLIC "-//W3C//DTD SVG 1.1//EN" "http://www.w3.org/Graphics/SVG/1.1/DTD/svg11.dtd"><svg xmlns="http://www.w3.org/2000/svg" xmlns:xlink="http://www.w3.org/1999/xlink"><symbol viewBox="0 0 24 24" id="--icons--bootstrap" xmlns="http://www.w3.org/2000/svg"><path fill-rule="evenodd" clip-rule="evenodd" d="M4.985 2c-1.37 0-2.383 1.199-2.337 2.498.043 1.25-.013 2.867-.42 4.186-.41 1.322-1.1 2.16-2.228 2.268v1.215c1.128.107 1.819.945 2.227 2.268.408 1.319.464 2.936.42 4.185-.045 1.3.968 2.499 2.338 2.499h14.032c1.37 0 2.383-1.199 2.337-2.499-.043-1.249.013-2.866.42-4.185.409-1.323 1.098-2.16 2.226-2.268v-1.215c-1.128-.108-1.817-.946-2.226-2.268-.407-1.32-.463-2.937-.42-4.186C21.4 3.198 20.386 2 19.017 2H4.985ZM16.27 13.769c0 1.79-1.335 2.875-3.55 2.875H8.949a.407.407 0 0 1-.407-.407V6.881a.407.407 0 0 1 .407-.406h3.75c1.847 0 3.06 1 3.06 2.537 0 1.078-.816 2.043-1.855 2.213v.056c1.415.155 2.367 1.135 2.367 2.488ZM12.31 7.764h-2.15v3.038h1.811c1.4 0 2.172-.564 2.172-1.572 0-.944-.664-1.466-1.833-1.466Zm-2.15 4.243v3.347h2.23c1.457 0 2.23-.585 2.23-1.684 0-1.1-.794-1.663-2.324-1.663h-2.136Z" fill="#563d7c"/></symbol><symbol viewBox="0 0 32 32" fill="none" id="--icons--css" xmlns="http://www.w3.org/2000/svg"><path d="M6 28 4 3h24l-2 25-10 3-10-3Z" fill="#1172B8"/><path d="M26 5H16v24.5l8-2.5 2-22Z" fill="#3AD"/><path d="M19.5 17.5h-10L9 14l8-2.5H9l-.5-3H24l-.5 3.5-6.5 2.5h6L22 24l-6 2-6-2-.5-5h3l.5 2.5 3 1 3-1 .5-4Z" fill="#fff"/></symbol><symbol fill="none" viewBox="0 0 48 20" id="--icons--flex" xmlns="http://www.w3.org/2000/svg"><path d="M.793 19V.818h11.648V3.58H4.087v4.936h7.555v2.761H4.087V19H.793ZM18.513.818V19H15.3V.818h3.213Zm9.342 18.448c-1.367 0-2.548-.284-3.542-.852a5.772 5.772 0 0 1-2.282-2.433c-.532-1.053-.799-2.293-.799-3.72 0-1.402.267-2.633.8-3.692.538-1.066 1.29-1.894 2.254-2.486.965-.598 2.098-.897 3.4-.897.841 0 1.634.136 2.38.408.751.267 1.414.681 1.988 1.243.58.563 1.036 1.279 1.368 2.149.331.864.497 1.894.497 3.09v.985H22.742v-2.166h8.096c-.006-.616-.139-1.163-.4-1.643a2.906 2.906 0 0 0-1.091-1.145c-.462-.278-1-.417-1.616-.417-.657 0-1.234.16-1.731.479a3.304 3.304 0 0 0-1.163 1.243 3.577 3.577 0 0 0-.418 1.678v1.89c0 .794.145 1.474.436 2.043.29.562.695.994 1.216 1.296.52.296 1.13.444 1.829.444.467 0 .89-.065 1.27-.196.378-.136.706-.334.985-.594a2.48 2.48 0 0 0 .63-.968l3 .337a4.677 4.677 0 0 1-1.082 2.078c-.527.586-1.202 1.041-2.025 1.367-.822.32-1.763.48-2.823.48ZM38.972 5.364l2.753 5.033 2.796-5.033h3.4l-4.11 6.818L47.992 19H44.61l-2.885-4.91-2.86 4.91h-3.408l4.155-6.818-4.049-6.818h3.41Z" fill="#FF5D3A"/></symbol><symbol viewBox="0 0 32 32" fill="none" id="--icons--git" xmlns="http://www.w3.org/2000/svg"><path d="M2.585 17.413a1.999 1.999 0 0 1 0-2.826L14.587 2.585c.78-.78 2.046-.78 2.826 0l12.002 12.002c.78.78.78 2.046 0 2.826L17.413 29.415c-.78.78-2.046.78-2.826 0L2.585 17.413Z" fill="#EE513B"/><path d="m12.149 5.062-1.215 1.215 3.139 3.139A2.126 2.126 0 0 0 15.25 12.3v7.679a2.126 2.126 0 1 0 1.718.097v-7.765l3 3a2.125 2.125 0 1 0 1.283-1.147l-3.221-3.223a2.125 2.125 0 0 0-2.66-2.66l-3.221-3.22Z" fill="#fff"/></symbol><symbol fill="none" viewBox="0 0 49 21" id="--icons--grid" xmlns="http://www.w3.org/2000/svg"><path d="M12.974 7.624a4.703 4.703 0 0 0-.613-1.287 3.96 3.96 0 0 0-.923-.985 3.723 3.723 0 0 0-1.225-.613 5.11 5.11 0 0 0-1.51-.213c-.976 0-1.846.246-2.61.737-.763.491-1.364 1.213-1.802 2.166-.432.947-.648 2.101-.648 3.462 0 1.373.216 2.536.648 3.49.432.952 1.033 1.677 1.802 2.174.77.492 1.664.737 2.681.737.924 0 1.723-.177 2.398-.532a3.754 3.754 0 0 0 1.57-1.51c.368-.657.551-1.426.551-2.308l.746.115H9.103v-2.574h7.377v2.184c0 1.556-.331 2.903-.994 4.04a6.794 6.794 0 0 1-2.734 2.627c-1.16.61-2.492.915-3.995.915-1.675 0-3.146-.376-4.413-1.128-1.26-.758-2.246-1.832-2.956-3.223C.684 14.502.332 12.845.332 10.927c0-1.468.207-2.779.621-3.933.42-1.154 1.006-2.134 1.758-2.939A7.48 7.48 0 0 1 5.357 2.21c1.012-.426 2.112-.64 3.302-.64 1.006 0 1.944.149 2.814.444.87.29 1.643.705 2.317 1.243a6.928 6.928 0 0 1 1.678 1.918c.438.74.725 1.557.861 2.45h-3.355ZM19.524 20V6.364h3.116v2.272h.142c.248-.787.674-1.393 1.278-1.82a3.519 3.519 0 0 1 2.086-.648c.178 0 .376.01.595.027.225.012.411.033.56.062v2.956a3.378 3.378 0 0 0-.649-.124 5.965 5.965 0 0 0-.843-.062c-.586 0-1.113.127-1.58.382a2.795 2.795 0 0 0-1.092 1.038c-.267.444-.4.956-.4 1.536V20h-3.214Zm9.912 0V6.364h3.213V20h-3.213ZM31.05 4.428c-.509 0-.947-.168-1.314-.506-.367-.343-.55-.754-.55-1.234 0-.485.183-.896.55-1.234A1.857 1.857 0 0 1 31.051.94c.515 0 .953.172 1.314.515.367.338.55.749.55 1.234 0 .48-.183.89-.55 1.234a1.854 1.854 0 0 1-1.314.506Zm9.963 15.812c-1.07 0-2.03-.275-2.876-.826-.846-.55-1.515-1.35-2.006-2.397-.492-1.047-.737-2.32-.737-3.817 0-1.516.248-2.794.745-3.836.504-1.047 1.181-1.837 2.033-2.37a5.224 5.224 0 0 1 2.85-.808c.8 0 1.456.136 1.971.408.515.267.923.59 1.225.968.302.373.536.725.702 1.057h.133v-6.8h3.222V20h-3.16v-2.148h-.195a5.489 5.489 0 0 1-.72 1.056c-.313.367-.727.68-1.242.941-.515.26-1.163.39-1.945.39Zm.897-2.637c.68 0 1.26-.184 1.74-.55.48-.373.843-.891 1.092-1.554.249-.663.373-1.435.373-2.317 0-.882-.124-1.649-.373-2.3-.243-.65-.604-1.157-1.083-1.518-.473-.36-1.056-.541-1.749-.541-.716 0-1.314.186-1.793.56-.48.372-.84.887-1.083 1.544s-.364 1.409-.364 2.255c0 .852.121 1.613.364 2.281.248.663.612 1.187 1.092 1.572.485.379 1.08.568 1.784.568Z" fill="#FFEF07"/></symbol><symbol viewBox="-155 0 566 566" preserveAspectRatio="xMidYMid" id="--icons--gulp" xmlns="http://www.w3.org/2000/svg"><path d="m197.28 548.749 5.427-90.43 14.985-25.58s-34.106 13.952-91.205 13.952c-57.1 0-90.689-13.694-90.689-13.694l16.794 27.904 5.941 87.848c0 9.418 31.059 17.052 69.374 17.052 38.313 0 69.373-7.634 69.373-17.052M180.161 126.454l11.391-45.025 63.081-66.376L238.007.892l-66.784 70.707-13.226 53.793a886.14 886.14 0 0 0-29.873-.497c-70.336 0-127.355 8.016-127.355 17.902 0 9.887 57.019 17.902 127.355 17.902 70.335 0 127.353-8.015 127.353-17.902 0-7.28-30.924-13.546-75.316-16.343" fill="#D34A47"/><path d="M173.535 151.669s-2.467.553-9.724.584c-7.259.03-12.413-.047-14.466-1.917-.552-.502-.854-1.499-.851-2.174.006-1.285.918-2.042 2.08-2.516l1.099 1.724c-.478.165-.751.36-.752.568-.004.976 7.422 1.644 13.102 1.572 5.681-.07 12.545-.538 12.551-1.5 0-.291-.519-.565-1.422-.781l1.094-1.712c1.472.457 2.757 1.34 2.754 2.868-.014 2.598-3.32 2.993-5.465 3.284" fill="#FFF"/><path d="M254.509 15.184c1.586-1.832-.821-6.518-5.376-10.465C244.576.774 239.596-.94 238.007.892c-1.587 1.832.821 6.518 5.378 10.463 4.555 3.946 9.537 5.662 11.124 3.829M194.246 327.865c-1.495-14.384 31.462-35.216 23.004-35.883-18.208 1.041-27.27 21.338-36.431 42.596-3.357 7.791-14.844 41.013-22.378 36.923-7.532-4.088 9.765-31.407 14.613-47.631-5.594 4.102-26.109 20.041-31.396 5.114-8.5 7.219-26.663 11.13-24.614-7.833-4.522 8.01-14.671 19.193-26.853 14.546-15.998-6.101 9.27-57.062 15.553-54.491 6.284 2.57-1.268 14.179-3.246 18.687-4.35 9.921-9.375 22.393-6.018 24.946 5.751 4.374 21.401-16.547 21.749-17.007 2.927-3.867 11.266-29.166 17.987-26.261 6.721 2.905-16.764 36.308-7.983 42.937 1.771 1.338 9.017-.825 13.425-5.594 2.852-3.085 1.871-9.918 11.378-32.59 9.507-22.671 17.98-50.905 24.5-48.754 6.52 2.15 1.146 16.641-1.193 22.043-10.976 25.354-29.956 67.241-21.005 64.07 8.951-3.17 13.612-3.356 22.377-13.613 8.765-10.257 8.361-27.152 14.203-26.793 5.844.36 4.863 5.777 3.446 9.902 5.75-6.58 27.256-20.438 32.448-6.713 6.15 16.249-30.769 39.72-21.564 38.523 8.975-1.167 23.515-10.376 29.723-18.749l17.088-153.626s-17.195 14.23-126.589 14.23c-109.395 0-124.811-13.934-124.811-13.934l14.548 140.224c7.722-21.947 26.059-66.339 54.963-64.849 13.148.678 30.7 25.995 15.665 26.853-6.364.362-7.01-12.637-14.546-14.546-5.438-1.378-13.009 3.043-17.902 7.833-9.758 9.55-30.745 47.229-27.972 66.014 3.533 23.949 33.048-8.322 38.042-17.903 3.517-6.749 5.893-26.745 13.585-24.647 7.693 2.098-.671 22.734-6.247 40.979-6.264 20.487-9.557 42.098-17.408 39.612-7.852-2.484 4.938-28.932 4.475-33.566-7.38 6.809-20.976 24.047-38.37 15.515l9.035 87.078s24.013 18.973 96.35 18.973c72.337 0 97.239-18.677 97.239-18.677l11.219-100.857c-9.179 8.938-38.229 24.81-40.089 6.919" fill="#D34A47"/></symbol><symbol viewBox="0 0 32 32" id="--icons--html" xmlns="http://www.w3.org/2000/svg"><path style="fill:#e44f26" d="M5.902 27.201 3.655 2h24.69l-2.25 25.197L15.985 30 5.902 27.201z"/><path style="fill:#f1662a" d="m16 27.858 8.17-2.265 1.922-21.532H16v23.797z"/><path style="fill:#ebebeb" d="M16 13.407h-4.09l-.282-3.165H16V7.151H8.25l.074.83.759 8.517H16v-3.091zM16 21.434l-.014.004-3.442-.929-.22-2.465H9.221l.433 4.852 6.332 1.758.014-.004v-3.216z"/><path style="fill:#fff" d="M15.989 13.407v3.091h3.806l-.358 4.009-3.448.93v3.216l6.337-1.757.046-.522.726-8.137.076-.83H15.989zM15.989 7.151V10.242h7.466l.062-.694.141-1.567.074-.83h-7.743z"/></symbol><symbol viewBox="0 0 512 512" id="--icons--javascript" xmlns="http://www.w3.org/2000/svg"><rect width="512" height="512" rx="15%" fill="#f7df1e"/><path d="M324 370c10 17 24 29 47 29 20 0 33-10 33-24 0-16-13-22-35-32l-12-5c-35-15-58-33-58-72 0-36 27-64 70-64 31 0 53 11 68 39l-37 24c-8-15-17-21-31-21s-23 9-23 21c0 14 9 20 30 29l12 5c41 18 64 35 64 76 0 43-34 67-80 67-45 0-74-21-88-49zm-170 4c8 13 14 25 31 25 16 0 26-6 26-30V203h48v164c0 50-29 72-72 72-39 0-61-20-72-44z"/></symbol><symbol viewBox="0 0 32 32" fill="none" id="--icons--npm" xmlns="http://www.w3.org/2000/svg"><path d="M0 10v10h9v2h7v-2h16V10H0Z" fill="#CB3837"/><path d="M5.462 12H2v6h3.462v-4.389h1.761V18h1.762v-6H5.462Zm5.284 0v8h3.523v-2h3.462v-6h-6.985Zm5.224 4.389h-1.701V13.61h1.7v2.778ZM22.954 12h-3.462v6h3.462v-4.389h1.762V18h1.761v-4.389h1.762V18H30v-6h-7.046Z" fill="#fff"/></symbol><symbol viewBox="0 0 64 64" xml:space="preserve" style="fill-rule:evenodd;clip-rule:evenodd;stroke-linejoin:round;stroke-miterlimit:2" id="--icons--react" xmlns="http://www.w3.org/2000/svg"><path style="fill:none" d="M-1088-64H192v800h-1280z"/><circle cx="32.001" cy="31.955" r="4.478" style="fill:#00d8ff"/><path d="M32.33 22.516c7.635.052 15.965.609 21.683 5.708.168.15.33.306.488.467 1.349 1.375 2.054 3.595.965 5.422-2.234 3.751-7.23 5.387-12.067 6.394-7.234 1.506-14.798 1.518-22.029.192-4.161-.764-8.416-2.103-11.373-4.904-1.151-1.09-2.135-2.524-1.981-4.12.25-2.582 2.727-4.239 4.812-5.361 5.791-3.116 12.847-3.813 19.502-3.798Zm-.554 1.173c-7.224.049-15.043.51-20.621 5.129-.195.161-.383.33-.564.507-.117.114-.23.233-.339.355-.979 1.1-1.316 2.867-.392 4.188.93 1.329 2.342 2.288 3.796 3.07 5.438 2.924 11.864 3.443 18.129 3.465 6.343.023 12.884-.555 18.487-3.452 2.232-1.155 4.744-2.851 4.655-5.035-.082-2.004-2.036-3.242-3.499-4.126-.396-.239-.803-.46-1.216-.668-5.562-2.787-12.08-3.447-18.436-3.433Z" style="fill:#00d8ff"/><path d="M42.115 10.703c2.793.071 4.24 3.429 4.431 5.909.038.493.052.988.046 1.483a21.007 21.007 0 0 1-.082 1.606c-.589 6.612-3.608 12.909-7.163 18.724-3.477 5.688-7.717 11.36-13.485 13.996-1.907.872-4.175 1.41-5.863.437-2.314-1.333-2.567-4.451-2.524-6.816.011-.581.049-1.162.109-1.741.889-8.56 5.228-16.669 10.658-23.655 3.168-4.076 6.937-8.119 11.632-9.583.739-.231 1.326-.371 2.241-.36Zm-.134 1.172c-3.279.052-6.223 2.482-8.83 5.007-6.854 6.637-11.905 15.464-13.937 24.721a26.54 26.54 0 0 0-.386 2.166 20.94 20.94 0 0 0-.159 1.697 16.62 16.62 0 0 0-.017 1.358c.01.354.033.708.072 1.06.029.269.068.537.117.803.037.197.08.393.13.588.041.158.087.315.139.471.409 1.233 1.463 2.411 2.878 2.45 3.301.09 6.409-2.317 9.096-4.933 4.717-4.591 8.232-10.36 10.978-16.424 2.216-4.896 4.243-10.218 3.111-15.607a7.36 7.36 0 0 0-.308-1.089c-.44-1.199-1.475-2.271-2.884-2.268Z" style="fill:#00d8ff"/><path d="M22.109 10.747c3.564.069 6.765 2.488 9.607 5.197 5.186 4.943 9.011 11.231 11.913 17.849 2.248 5.127 4.316 10.882 2.478 16.292-.579 1.705-2.044 3.265-3.997 3.305-3.581.072-6.9-2.532-9.78-5.335-7.225-7.034-12.589-16.32-14.427-26.168a25.392 25.392 0 0 1-.309-2.127 20.927 20.927 0 0 1-.106-1.752c-.008-.472.002-.944.035-1.414.022-.314.054-.626.097-.937a10.741 10.741 0 0 1 .304-1.439c.539-1.843 1.941-3.485 4.185-3.471Zm-.135 1.173c-2.087.046-3.042 2.507-3.234 4.234-.039.354-.063.711-.074 1.068-.014.456-.008.913.015 1.369.328 6.599 3.278 12.979 6.838 18.821 3.352 5.5 7.4 10.978 12.968 13.794 1.608.813 3.562 1.452 4.951.684 1.742-.964 1.956-3.261 2.049-4.973.025-.466.028-.934.013-1.401a20.148 20.148 0 0 0-.133-1.753c-.642-5.437-3.05-10.582-5.816-15.444-3.442-6.048-7.659-12.076-13.627-15.225-1.236-.652-2.574-1.185-3.95-1.174Z" style="fill:#00d8ff"/></symbol><symbol viewBox="0 0 32 32" fill="none" id="--icons--redux" xmlns="http://www.w3.org/2000/svg"><path d="M21.787 21.556a2.114 2.114 0 0 0 1.909-2.177c-.039-1.126-.993-2.027-2.138-2.027h-.077a2.115 2.115 0 0 0-2.061 2.177c.038.563.267 1.051.61 1.389-1.297 2.515-3.283 4.354-6.26 5.893-2.024 1.05-4.123 1.426-6.223 1.163-1.718-.225-3.054-.976-3.894-2.214-1.222-1.84-1.336-3.829-.305-5.818.725-1.426 1.87-2.477 2.596-3.003a19.962 19.962 0 0 1-.497-1.914c-5.535 3.941-4.963 9.27-3.283 11.786 1.26 1.876 3.818 3.04 6.643 3.04.763 0 1.527-.075 2.29-.263 4.887-.938 8.59-3.79 10.69-8.032Zm6.719-4.654c-2.901-3.34-7.177-5.18-12.064-5.18h-.61a2.102 2.102 0 0 0-1.871-1.126h-.077a2.115 2.115 0 0 0-2.061 2.177c.038 1.126.992 2.027 2.138 2.027h.076a2.15 2.15 0 0 0 1.87-1.276h.688c2.901 0 5.65.825 8.132 2.44 1.908 1.238 3.283 2.852 4.046 4.804.65 1.576.61 3.115-.076 4.429-1.07 1.989-2.863 3.077-5.23 3.077-1.527 0-2.978-.45-3.742-.788a22.52 22.52 0 0 1-1.718 1.351c1.642.751 3.322 1.164 4.925 1.164 3.665 0 6.376-1.99 7.406-3.979 1.107-2.177 1.031-5.93-1.832-9.12ZM9.112 22.194c.039 1.126.993 2.027 2.138 2.027h.077a2.115 2.115 0 0 0 2.061-2.177c-.038-1.126-.993-2.027-2.138-2.027h-.076c-.076 0-.191 0-.267.037-1.566-2.552-2.215-5.33-1.985-8.332.152-2.252.916-4.204 2.252-5.818 1.107-1.388 3.245-2.064 4.696-2.101 4.046-.076 5.764 4.879 5.879 6.868.496.113 1.336.376 1.909.563-.459-6.08-4.276-9.233-7.941-9.233-3.436 0-6.605 2.44-7.865 6.043-1.756 4.804-.61 9.42 1.527 13.061-.19.263-.305.676-.267 1.089Z" fill="#764ABC"/></symbol><symbol viewBox="0 0 32 32" id="--icons--scss" xmlns="http://www.w3.org/2000/svg"><path d="M16.171 18.7c-.481.221-1.008.509-2.063 1.088-.4.225-.818.45-1.207.662-.027-.027-.055-.061-.082-.089-2.087-2.23-5.947-3.805-5.783-6.8.061-1.091.436-3.955 7.413-7.433 5.742-2.83 10.311-2.046 11.1-.307 1.134 2.479-2.449 7.092-8.379 7.761a4.469 4.469 0 0 1-3.751-.948c-.314-.341-.361-.361-.477-.293-.191.1-.068.409 0 .586a3.5 3.5 0 0 0 2.141 1.684 11.4 11.4 0 0 0 6.956-.689c3.594-1.391 6.4-5.258 5.578-8.5-.825-3.287-6.281-4.371-11.443-2.537a26 26 0 0 0-8.79 5.047c-2.844 2.66-3.294 4.972-3.11 5.94.662 3.437 5.4 5.674 7.3 7.331-.1.055-.184.1-.259.143-.948.471-4.562 2.36-5.463 4.358-1.023 2.264.164 3.887.948 4.105a5.832 5.832 0 0 0 6.281-2.544 6.3 6.3 0 0 0 .559-5.8 5.03 5.03 0 0 1 .716-.477c.484-.286.945-.568 1.354-.786a10.475 10.475 0 0 1 4.475-.989c3.246.382 3.887 2.407 3.764 3.26a2.157 2.157 0 0 1-1.03 1.459c-.225.143-.3.191-.28.293.027.15.136.143.327.116a2.535 2.535 0 0 0 1.766-2.257c.1-2-1.807-4.194-5.183-4.174a7.753 7.753 0 0 0-2.946.587q-.225.093-.437.2Zm-4.825 7.839c-1.078 1.173-2.578 1.616-3.226 1.241-.7-.4-.423-2.135.9-3.376a17.18 17.18 0 0 1 2.53-1.889c.157-.1.389-.232.668-.4l.075-.041.164-.1a4.658 4.658 0 0 1-1.111 4.565Z" style="fill:#cd6799"/></symbol><symbol viewBox="-17 0 290 290" preserveAspectRatio="xMidYMid" id="--icons--webpack" xmlns="http://www.w3.org/2000/svg"><path fill="#FFF" d="m128 .048 128 72.405V217.31l-128 72.405L0 217.31V72.453z"/><path d="m233.153 212.287-100.902 57.14V224.99l62.889-34.632 38.013 21.929Zm6.907-6.231V86.654l-36.902 21.3v76.8l36.902 21.302Zm-217.6 6.23 100.903 57.094v-44.438l-62.889-34.584-38.014 21.929Zm-6.907-6.23V86.654l36.903 21.3v76.8l-36.903 21.302Zm4.3-127.13 103.51-58.543v42.99L57.045 99.84l-.532.29-36.66-21.205Zm215.86 0L132.251 20.382v42.99l66.27 36.515.531.29 36.661-21.253Z" fill="#8ED6FB"/><path d="m123.363 214.847-62.02-34.15v-67.574l62.02 35.792v65.932Zm8.888 0 62.02-34.101v-67.623l-62.02 35.792v65.932ZM65.497 105.298l62.31-34.246 62.26 34.246-62.26 35.937-62.31-35.937Z" fill="#1C78C0"/></symbol><symbol viewBox="0 0 194.22 184.73" id="--star" xmlns="http://www.w3.org/2000/svg"><path transform="rotate(1.005 57406.166 -36848.976) scale(2.21184)" d="m369.21 535.67-27.378-13.793-26.882 14.735 4.656-30.3-22.32-21.014 30.256-4.935 13.088-27.722 14.042 27.251 30.41 3.88-21.578 21.777z" style="fill:#fc0"/><path style="fill:#ffe680" d="m380.03 451.38-30.72 41.819 97.411-31.899z" transform="translate(-252.715 -390.964)"/><path style="fill:#fd5" d="M349.81 492.31v51.942l-60.63 31.117zM349.81 492.31l59.613 81.476-11.189-65.984z" transform="translate(-252.715 -390.964)"/><path style="fill:#ffe680" d="m253.1 461.37 96.715 30.942-29.882-40.842z" transform="translate(-252.715 -390.964)"/><path style="fill:#fd5" d="M349.81 492.31V391.09l29.83 60.357z" transform="translate(-252.715 -390.964)"/><path style="fill:#ffd42a" d="m289.8 574.53 11.261-66.541 48.757-15.679z" transform="translate(-252.715 -390.964)"/></symbol></svg>