<?xml version="1.0" encoding="utf-8"?><svg xmlns="http://www.w3.org/2000/svg" xmlns:xlink="http://www.w3.org/1999/xlink"><symbol fill="none" viewBox="0 0 44 23" id="--icons--arrow" xmlns="http://www.w3.org/2000/svg"><path d="M43.482.512a1.819 1.819 0 0 0-2.532 0L22 18.849 3.054.512a1.819 1.819 0 0 0-2.532 0A1.712 1.712 0 0 0 0 1.739a1.701 1.701 0 0 0 .522 1.227l20.155 19.5a1.903 1.903 0 0 0 2.646 0l20.155-19.5A1.712 1.712 0 0 0 44 1.739a1.703 1.703 0 0 0-.522-1.227h.004Z" fill="#000"/></symbol><symbol viewBox="0 0 16 29" id="--icons--arrow-right" xmlns="http://www.w3.org/2000/svg"><path d="M.356 28.001A1.127 1.127 0 0 1 0 27.186c0-.305.128-.598.356-.816l12.757-12.203L.356 1.967A1.127 1.127 0 0 1 0 1.15C0 .847.128.554.356.336.467.23.6.146.746.087a1.266 1.266 0 0 1 .927 0c.146.058.279.143.39.249l13.565 12.98c.239.227.372.533.372.851 0 .319-.133.624-.372.852L2.063 28c-.111.106-.244.19-.39.248a1.266 1.266 0 0 1-.927 0A1.198 1.198 0 0 1 .356 28V28Z"/></symbol><symbol fill="none" viewBox="0 0 32 32" id="--icons--comment" xmlns="http://www.w3.org/2000/svg"><g clip-path="url(#ca)"><path d="M32 13.333c0 2.417-.714 4.65-2.143 6.698-1.428 2.049-3.369 3.667-5.821 4.854-2.453 1.188-5.131 1.782-8.036 1.782-.833 0-1.696-.056-2.59-.167-2.356 2.43-5.095 4.111-8.214 5.042A11.77 11.77 0 0 1 3.161 32a.634.634 0 0 1-.545-.188 1.089 1.089 0 0 1-.312-.604v-.02c-.036-.056-.04-.14-.01-.25a.641.641 0 0 0 .036-.209c-.006-.028.021-.094.08-.198l.108-.187.125-.177.143-.188a291.53 291.53 0 0 1 1.17-1.51c.124-.16.309-.434.553-.823.244-.39.437-.743.58-1.063.143-.32.304-.729.482-1.229.179-.5.334-1.028.465-1.583-1.87-1.236-3.343-2.764-4.42-4.584C.54 17.369 0 15.418 0 13.334c0-1.805.423-3.53 1.268-5.177a13.6 13.6 0 0 1 3.41-4.26C6.109 2.7 7.81 1.753 9.787 1.052A18.44 18.44 0 0 1 16 0c2.905 0 5.583.594 8.036 1.781 2.452 1.188 4.393 2.806 5.821 4.854C31.286 8.684 32 10.917 32 13.333Z" fill="#000"/></g><defs><clipPath id="ca"><path fill="#fff" d="M0 0h32v32H0z"/></clipPath></defs></symbol><symbol fill="none" viewBox="0 0 21 21" id="--icons--email" xmlns="http://www.w3.org/2000/svg"><path d="M19.25 7.532v7.124a2.844 2.844 0 0 1-2.683 2.84l-.16.004H4.593a2.844 2.844 0 0 1-2.84-2.683l-.004-.16V7.531l8.445 4.424a.656.656 0 0 0 .61 0l8.445-4.424ZM4.594 3.5h11.812a2.844 2.844 0 0 1 2.83 2.559L10.5 10.634 1.764 6.059a2.844 2.844 0 0 1 2.667-2.555l.163-.004h11.812H4.594Z" fill="#000"/></symbol><symbol fill="none" viewBox="0 0 21 21" id="--icons--facebook" xmlns="http://www.w3.org/2000/svg"><g clip-path="url(#ea)"><path d="M17.063 0c1.084 0 2.012.385 2.782 1.155S21 2.853 21 3.938v13.124c0 1.085-.385 2.012-1.155 2.783-.77.77-1.698 1.155-2.782 1.155h-2.57v-8.135h2.72l.41-3.172h-3.13V7.67c0-.51.106-.893.32-1.149.215-.255.632-.382 1.251-.382l1.668-.014v-2.83c-.574-.082-1.385-.123-2.433-.123-1.24 0-2.231.364-2.974 1.094-.743.729-1.114 1.759-1.114 3.09v2.337H8.477v3.172h2.734V21H3.937c-1.084 0-2.012-.385-2.782-1.155S0 18.147 0 17.063V3.938c0-1.085.385-2.013 1.155-2.783S2.853 0 3.938 0h13.124Z" fill="#000"/></g><defs><clipPath id="ea"><path fill="#fff" d="M0 0h21v21H0z"/></clipPath></defs></symbol><symbol fill="none" viewBox="0 0 32 32" id="--icons--filled" xmlns="http://www.w3.org/2000/svg"><path d="M16 2.667v8a2.667 2.667 0 0 0 2.667 2.666h8v13.334A2.667 2.667 0 0 1 24 29.333h-9.08a8.667 8.667 0 0 0-9.587-14.002V5.333A2.667 2.667 0 0 1 8 2.667h8Zm2 .666v7.334a.667.667 0 0 0 .667.666H26l-8-8ZM8.667 16a7.333 7.333 0 1 0 0 14.666 7.333 7.333 0 0 0 0-14.666Zm3.304 4.975-2.36 2.36 2.36 2.358a.666.666 0 1 1-.943.943l-2.36-2.36-2.359 2.357a.668.668 0 1 1-.942-.944l2.358-2.356-2.358-2.36a.666.666 0 1 1 .942-.942l2.36 2.358 2.36-2.358a.667.667 0 0 1 .942.942v.002Z" fill="#000"/></symbol><symbol fill="none" viewBox="0 0 32 32" id="--icons--idea" xmlns="http://www.w3.org/2000/svg"><path d="M15.138 0v5.078h1.724V0h-1.724ZM8.095 1.526l-1.413.99 2.912 4.158 1.412-.99-2.911-4.158Zm15.81 0-2.911 4.159 1.412.989 2.912-4.159-1.413-.989ZM16 6.467c-4.22 0-7.64 2.563-7.64 5.724l4.34 13.145h6.6l4.34-13.145c0-3.161-3.42-5.724-7.64-5.724ZM2.28 7.991l-.59 1.622 4.77 1.736.59-1.62L2.28 7.99Zm27.44 0L24.95 9.73l.589 1.62 4.771-1.736-.59-1.622Zm-22.9 7.414L1.916 16.72l.445 1.665 4.904-1.314-.445-1.666Zm18.36 0-.445 1.667 4.904 1.313.445-1.665-4.904-1.315Zm-12.576 10.89v2.284h6.792v-2.285h-6.792Zm0 3.42V32h6.792v-2.285h-6.792Z" fill="#000"/></symbol><symbol fill="none" viewBox="0 0 27 27" id="--icons--instagram" xmlns="http://www.w3.org/2000/svg"><path d="M13.5 17.015A3.522 3.522 0 0 1 9.985 13.5 3.522 3.522 0 0 1 13.5 9.985a3.522 3.522 0 0 1 3.515 3.515 3.522 3.522 0 0 1-3.515 3.515ZM24.042 13.5c0 1.455.013 2.898-.069 4.35-.082 1.688-.467 3.185-1.7 4.42-1.237 1.236-2.732 1.619-4.42 1.7-1.455.082-2.898.069-4.35.069-1.456 0-2.898.013-4.351-.069-1.687-.081-3.185-.466-4.42-1.7-1.236-1.237-1.618-2.732-1.7-4.42-.082-1.455-.068-2.897-.068-4.35 0-1.453-.014-2.898.068-4.35.082-1.688.467-3.186 1.7-4.42 1.238-1.237 2.733-1.619 4.42-1.7 1.456-.082 2.898-.07 4.35-.07 1.456 0 2.898-.012 4.351.07 1.688.081 3.185.466 4.42 1.7 1.236 1.237 1.618 2.732 1.7 4.42.084 1.452.069 2.894.069 4.35ZM13.5 8.092A5.4 5.4 0 0 0 8.092 13.5a5.4 5.4 0 0 0 5.408 5.408 5.4 5.4 0 0 0 5.408-5.408A5.4 5.4 0 0 0 13.5 8.092Zm5.63 9.774c-.7 0-1.264.564-1.264 1.263s.565 1.263 1.263 1.263a1.262 1.262 0 0 0 .894-2.156 1.26 1.26 0 0 0-.894-.37Z" fill="#000"/></symbol><symbol fill="none" viewBox="0 0 32 32" id="--icons--like" xmlns="http://www.w3.org/2000/svg"><path d="M27.684 16.678a4.021 4.021 0 0 0 .816-2.428c0-1.403-.784-2.731-2.047-3.472a2.114 2.114 0 0 0-1.072-.29h-7.494l.188-3.841a3.345 3.345 0 0 0-.922-2.481 3.331 3.331 0 0 0-2.434-1.044 3.633 3.633 0 0 0-3.494 2.66L8.541 15.5h-.01v13.375h14.76c.287 0 .568-.056.828-.169a4.018 4.018 0 0 0 2.278-4.856 4.022 4.022 0 0 0 .647-3.584 4.021 4.021 0 0 0 .815-2.428 4.27 4.27 0 0 0-.175-1.16ZM3.5 16.5v11.375c0 .553.447 1 1 1h2.031V15.5H4.5c-.553 0-1 .447-1 1Z" fill="#000"/></symbol><symbol fill="none" viewBox="0 0 15 21" id="--icons--point" xmlns="http://www.w3.org/2000/svg"><g clip-path="url(#ka)"><path d="M6.73 20.576C1.053 11.936 0 11.05 0 7.875 0 3.525 3.358 0 7.5 0 11.642 0 15 3.526 15 7.875c0 3.175-1.053 4.062-6.73 12.701a.913.913 0 0 1-1.54 0Zm.77-9.42c1.726 0 3.125-1.469 3.125-3.281S9.225 4.594 7.5 4.594c-1.726 0-3.125 1.469-3.125 3.281s1.4 3.281 3.125 3.281Z" fill="#000"/></g><defs><clipPath id="ka"><path fill="#fff" d="M0 0h15v21H0z"/></clipPath></defs></symbol><symbol viewBox="0 0 38 41" id="--icons--point-map" xmlns="http://www.w3.org/2000/svg"><rect width="38" height="41" rx="12" fill="#FFFCFC"/><g clip-path="url(#ja)"><path d="M17.73 30.576C12.052 21.936 11 21.05 11 17.875 11 13.525 14.358 10 18.5 10c4.142 0 7.5 3.526 7.5 7.875 0 3.175-1.053 4.062-6.73 12.701a.913.913 0 0 1-1.54 0Zm.77-9.42c1.726 0 3.125-1.469 3.125-3.281s-1.4-3.281-3.125-3.281c-1.726 0-3.125 1.469-3.125 3.281s1.4 3.281 3.125 3.281Z"/></g><defs><clipPath id="ja"><path fill="#fff" transform="translate(11 10)" d="M0 0h15v21H0z"/></clipPath></defs></symbol><symbol fill="none" viewBox="0 0 70 70" id="--icons--services-1" xmlns="http://www.w3.org/2000/svg"><g clip-path="url(#la)" fill="#000"><path d="M31.567.86c-7.727.75-15.24 4.328-20.82 9.891a34.286 34.286 0 0 0-6.53 39.37c4.079 8.3 11.198 14.507 19.963 17.423a34.201 34.201 0 0 0 21.643 0C63.8 61.569 73.512 42.162 67.538 24.185 62.476 8.963 47.594-.678 31.568.86Zm8.175 9.623c5.044.966 9.176 3.184 12.897 6.887 3.666 3.685 5.777 7.602 6.886 12.807.573 2.665.573 6.994 0 9.66-.733 3.47-2.093 6.653-3.988 9.444-1.217 1.77-4.49 5.044-6.261 6.26-2.79 1.897-5.975 3.256-9.445 3.99-2.664.572-6.993.572-9.659 0-5.205-1.109-9.122-3.22-12.807-6.887-3.739-3.738-5.974-7.978-6.976-13.165-.483-2.522-.43-6.815.09-9.301 1.037-4.92 3.094-8.872 6.403-12.36 4.078-4.275 9.337-6.923 15.275-7.674 1.879-.233 5.492-.072 7.585.34Z"/><path d="M32.426 11.753c-5.51.697-9.999 2.88-13.898 6.78-3.434 3.434-5.438 7.136-6.44 11.876-.554 2.576-.554 6.619 0 9.195 1.002 4.74 3.006 8.443 6.44 11.877 3.434 3.434 7.137 5.437 11.877 6.44 2.557.553 6.6.553 9.193 0 4.723-.984 8.443-3.006 11.877-6.44 3.434-3.434 5.438-7.137 6.44-11.877.554-2.576.554-6.619 0-9.195-1.002-4.74-3.005-8.442-6.44-11.877-3.416-3.416-7.208-5.473-11.805-6.421-2.057-.412-5.455-.59-7.244-.358Zm5.062 3.327c.537.161 1.449.519 2.02.805 1.002.5 1.056.554.967 1.109a27.761 27.761 0 0 0-.197 1.646c-.143 1.359-.715 3.827-1.18 5.08-1.825 4.918-5.581 5.437-7.727 1.037-.68-1.378-1.468-4.347-1.646-6.117a28.367 28.367 0 0 0-.197-1.646c-.09-.555-.035-.608.948-1.091 1.109-.555 2.504-1.038 3.363-1.181.823-.107 2.576.054 3.649.358Zm-10.786 4.043c2.934 3.666 4.31 6.797 4.007 9.05-.125.877-.59 1.557-1.449 2.147-.554.393-.751.411-2.129.357-1.323-.07-1.717-.179-3.059-.805-.858-.393-2.057-1.073-2.683-1.502-1.52-1.019-3.38-2.504-3.38-2.7 0-.376.787-2.451 1.217-3.184.625-1.091 1.86-2.38 2.915-3.04.787-.52 3.005-1.414 3.488-1.431.107-.001.59.5 1.073 1.108Zm19.48-.537c2.736 1.055 4.865 3.47 5.633 6.385.197.77.197.787-.464 1.342-2.272 1.896-4.722 3.399-6.69 4.078-1.127.376-2.987.448-3.614.143-1.234-.644-1.788-1.627-1.788-3.112.018-2.165 1.377-4.955 4.042-8.3 1.002-1.252 1.02-1.252 2.88-.536ZM37.04 29.569c2.164.769 3.703 2.95 3.738 5.348.018 1.538-.465 2.772-1.502 3.917-1.842 2.021-4.454 2.522-6.904 1.342-2.165-1.055-3.543-3.738-3.095-6.1.698-3.684 4.239-5.741 7.763-4.507Zm-18.406.16c1.77.18 4.74.967 6.117 1.646 4.4 2.147 3.882 5.904-1.037 7.728-1.253.465-3.72 1.037-5.08 1.18-.59.054-1.324.143-1.646.197-.554.09-.608.035-1.109-.966-1.574-3.113-1.574-5.868.018-9.033.483-.984.537-1.038 1.092-.948.321.054 1.055.143 1.645.197Zm35.488.77c1.538 3.059 1.538 6.082-.018 9.033-.518.966-.59 1.02-1.109.948a25.135 25.135 0 0 0-1.627-.197c-1.36-.143-3.828-.715-5.08-1.18-3.882-1.45-5.134-4.061-3.023-6.35 1.538-1.664 4.74-2.702 10.107-3.274.124 0 .464.447.75 1.02Zm-25.49 8.89c.573.125 1.485.895 1.825 1.556.376.734.34 2.505-.072 3.72-.68 1.968-2.182 4.419-4.078 6.69-.554.663-.572.663-1.341.465-2.915-.769-5.33-2.898-6.385-5.634-.716-1.86-.716-1.878.537-2.88 2.683-2.146 5.527-3.685 7.315-3.97.93-.162 1.216-.144 2.2.053Zm15.652.107c.948.214 2.951 1.217 4.4 2.182 1.45.983 3.309 2.486 3.309 2.665 0 .09-.161.662-.376 1.27-.912 2.737-2.754 4.722-5.312 5.76-1.968.787-1.986.787-3.005-.484-3.596-4.49-4.937-8.425-3.524-10.303 1.002-1.34 2.165-1.609 4.508-1.09Zm-8.514 2.862c1.306.358 2.558 1.843 3.327 3.936.465 1.252 1.037 3.72 1.18 5.08.054.59.143 1.323.197 1.628.071.519.017.59-.948 1.109-2.951 1.556-5.974 1.556-9.051.018-.948-.483-1.037-.573-.948-1.02.036-.267.143-1.037.197-1.716.178-1.861.93-4.687 1.61-6.1.697-1.431 1.7-2.504 2.7-2.862.86-.306.895-.306 1.736-.073Z"/><path d="M33.839 32.395c-1.807.787-2.236 3.184-.823 4.597 1.163 1.163 2.809 1.163 3.971 0 2.218-2.218-.269-5.849-3.148-4.597Z"/></g><defs><clipPath id="la"><path fill="#fff" d="M0 0h70v70H0z"/></clipPath></defs></symbol><symbol fill="none" viewBox="0 0 90 90" id="--icons--services-2" xmlns="http://www.w3.org/2000/svg"><g clip-path="url(#ma)" fill="#000"><path d="M41.23 1.192c-.779.381-1.383 1.159-1.625 2.059-.156.587-.295.761-.571.761-.19 0-1.246.19-2.335.415l-1.989.415-.605-.675c-.657-.726-1.592-1.193-2.421-1.193-.588 0-5.535 1.936-6.26 2.456-.744.518-1.177 1.522-1.177 2.698v1.038l-1.158.709a42.142 42.142 0 0 0-2.145 1.418l-.968.692-.744-.38c-.916-.485-2.092-.502-2.94-.07-.865.45-4.444 4.047-4.756 4.808-.363.882-.328 2.076.087 2.905l.363.692-1.401 2.11-1.418 2.11-.986.017c-1.193 0-2.196.467-2.715 1.244-.208.312-.83 1.66-1.384 3.01-1.366 3.406-1.332 4.549.208 5.81l.623.52-.345 1.694c-.19.952-.398 2.007-.45 2.352-.087.501-.208.657-.468.657-.45 0-1.539.554-1.92.986-.708.779-.83 1.488-.83 4.583 0 2.543.052 3.095.329 3.701.397.865 1.314 1.608 2.161 1.747.467.07.64.19.692.467.035.19.243 1.246.45 2.318l.398 1.971-.64.519c-1.539 1.263-1.59 2.524-.225 5.776 1.297 3.078 1.419 3.286 2.231 3.84.623.397.882.467 1.903.45.64-.018 1.176.034 1.176.103 0 .07.588 1.02 1.314 2.093l1.314 1.971-.363.744c-.432.865-.467 2.04-.104 2.922.329.779 3.545 4.082 4.566 4.686a3.186 3.186 0 0 0 3.165.07l.744-.415 2.161 1.452 2.162 1.436-.052.985c-.052 1.142.363 2.145 1.141 2.699.779.57 5.638 2.456 6.278 2.456.847-.017 1.92-.554 2.525-1.28l.519-.64 1.711.346c.952.19 1.99.38 2.318.432.553.103.64.19.83.864.242.917.864 1.695 1.66 2.076.865.398 6.606.398 7.471 0 .796-.38 1.418-1.16 1.642-2.076.173-.692.26-.76.83-.847.346-.07 1.384-.26 2.335-.45l1.712-.346.518.64c.606.726 1.678 1.263 2.508 1.28.709 0 5.603-1.937 6.381-2.525.692-.518 1.124-1.66 1.055-2.75l-.052-.864 2.162-1.436 2.145-1.435.709.38c.985.571 2.196.537 3.2-.052 1.037-.605 4.254-3.908 4.582-4.686.364-.882.328-2.058-.103-2.922l-.364-.744 1.418-2.126 1.436-2.128.64.104c.865.138 1.85-.139 2.56-.727.431-.362.812-1.09 1.608-2.991 1.245-2.975 1.383-3.615 1.09-4.774-.156-.64-.398-1.003-.935-1.488l-.726-.657.38-1.936c.209-1.072.416-2.127.45-2.318.053-.276.226-.398.693-.467.848-.139 1.764-.882 2.162-1.747.277-.606.328-1.16.328-3.7 0-3.097-.121-3.805-.83-4.584-.38-.431-1.47-.985-1.92-.985-.259 0-.38-.156-.467-.657a81.867 81.867 0 0 0-.45-2.352l-.345-1.694.623-.52c1.522-1.244 1.556-2.404.19-5.81-.554-1.35-1.16-2.698-1.367-3.01-.536-.778-1.539-1.244-2.732-1.262h-.986l-1.4-2.093-1.383-2.11.345-.743c.398-.899.45-2.023.104-2.802-.12-.311-1.245-1.539-2.455-2.75-1.764-1.729-2.387-2.213-2.94-2.369a3.035 3.035 0 0 0-2.439.364l-.553.328-2.18-1.435-2.16-1.436v-.951c-.018-1.16-.468-2.231-1.142-2.715-.796-.554-5.707-2.474-6.33-2.474-.813.018-1.902.554-2.49 1.246l-.501.606-1.99-.398c-1.09-.225-2.161-.415-2.351-.415-.294 0-.415-.156-.57-.761-.226-.917-.848-1.695-1.643-2.076-.866-.398-6.677-.398-7.507.016Zm7.748 13.784c7.004.934 13.022 4.012 18.003 9.218 3.873 4.046 6.554 9.183 7.765 14.838.536 2.473.675 7.575.276 10.22a30.35 30.35 0 0 1-16.93 22.985c-8.32 3.995-17.849 3.995-26.15 0-10.566-5.067-17.224-15.651-17.207-27.325.034-15.22 11.396-28.034 26.633-29.988 1.799-.241 5.638-.207 7.61.052Z"/><path d="M42.493 17.432c-4.22.606-6.831 1.366-9.702 2.802-2.854 1.435-4.791 2.836-7.178 5.222-4.012 4.013-6.382 8.37-7.627 14.078-.328 1.488-.38 2.284-.38 5.379-.017 3.164.034 3.873.398 5.517 2.11 9.944 9.131 17.83 18.522 20.822 3.58 1.141 7.245 1.574 10.584 1.263 4.098-.381 6.658-1.107 10.255-2.871 6.364-3.13 11.466-9.01 13.748-15.79.969-2.923 1.245-4.496 1.332-8.076.07-2.82.035-3.58-.277-5.431-1.937-11.38-10.532-20.217-21.894-22.5-1.66-.346-6.52-.605-7.781-.415Zm-1.229 8.681c.83 2.924 1.73 5.742 1.99 6.26.535 1.073 1.435 1.799 1.988 1.626.554-.138 1.418-1.193 1.816-2.196.312-.795 2.438-8.06 2.958-10.186.208-.779.242-.813.675-.726 1.297.294 4.133 1.349 5.482 2.04 2.542 1.28 2.593.553-.415 5.949-3.148 5.638-3.667 6.987-3.13 8.042.294.536.484.64 1.296.64 1.142 0 2.059-.415 7.109-3.217l4.79-2.68.312.397c1.02 1.35 3.355 7.23 2.974 7.558-.086.069-2.404.778-5.171 1.556-2.75.778-5.465 1.625-6.019 1.867-1.677.76-2.283 1.885-1.521 2.854.622.779 2.023 1.331 7.28 2.819 2.906.83 5.327 1.556 5.413 1.625.364.346-2.006 6.382-3.026 7.68-.208.294-.502.155-4.289-1.973-5.915-3.32-6.78-3.7-8.267-3.631-.587.034-1.071.623-1.071 1.314 0 1.141.692 2.68 3.32 7.384 2.49 4.444 2.593 4.687 2.283 4.929-1.193.865-5.932 2.819-7.332 3.026-.502.07-.398.381-2.18-6-1.296-4.67-1.833-6.02-2.645-6.711-.692-.588-1.055-.588-1.73-.034-.829.709-1.296 1.92-2.784 7.177-.778 2.715-1.435 5.067-1.487 5.223-.139.432-.675.398-2.526-.225-1.556-.52-4.738-1.972-5.378-2.473-.312-.243-.173-.519 2.3-4.929 2.663-4.755 3.286-6.157 3.286-7.264 0-1.002-.38-1.4-1.366-1.4-1.28 0-2.11.364-7.229 3.217-2.629 1.47-4.808 2.663-4.825 2.663-.12 0-1.418-2.49-1.989-3.805-.745-1.728-1.42-3.993-1.23-4.167.07-.069 2.388-.76 5.137-1.539 5.465-1.539 6.797-2.04 7.437-2.801.674-.796.587-1.54-.26-2.266-.916-.778-1.313-.917-7.315-2.629l-5.05-1.435.052-.501c.103-.865 1.09-3.545 1.937-5.24 1.349-2.663.605-2.698 6.035.345 4.93 2.75 6.122 3.286 7.281 3.286 1.314 0 1.695-.968 1.124-2.87-.139-.468-1.453-3.027-2.94-5.69-2.404-4.324-2.663-4.86-2.404-5.05.484-.363 2.87-1.557 3.873-1.954.83-.329 3.529-1.177 3.823-1.194.07-.017.795 2.37 1.608 5.31Z"/><path d="M43.53 39.69c-1.625.553-2.922 1.678-3.562 3.147-.484 1.107-.518 2.768-.086 4.065.45 1.314 1.902 2.767 3.216 3.216 1.263.432 2.958.398 4.03-.07 1.124-.5 2.42-1.78 2.905-2.853.882-1.972.398-4.549-1.141-6.088-1.315-1.314-3.736-1.953-5.362-1.417Z"/></g><defs><clipPath id="ma"><path fill="#fff" d="M0 0h90v90H0z"/></clipPath></defs></symbol><symbol fill="none" viewBox="0 0 80 80" id="--icons--services-4" xmlns="http://www.w3.org/2000/svg"><g clip-path="url(#na)"><path d="M63.333 26.667c-.944 0-1.735-.32-2.373-.957-.64-.64-.96-1.432-.96-2.377 0-.444.097-.874.29-1.29.196-.418.432-.765.71-1.043.667-.667 2.194-1.417 4.583-2.25l3.584-1.25-1.25 3.583a30.316 30.316 0 0 1-1.124 2.75c-.418.89-.793 1.5-1.126 1.834a3.6 3.6 0 0 1-1.04.706 3.02 3.02 0 0 1-1.294.294ZM13.333 70c-1.833 0-3.402-.652-4.706-1.957-1.307-1.306-1.96-2.876-1.96-4.71V16.667c0-1.834.653-3.404 1.96-4.71C9.93 10.652 11.5 10 13.333 10h20c1.834 0 3.404.652 4.71 1.957C39.348 13.263 40 14.833 40 16.667v26.666h13.333v20H60v-20h-3.333v-4.75c-3-1.277-5.417-3.277-7.25-6-1.834-2.722-2.75-5.805-2.75-9.25 0-4.61 1.625-8.54 4.876-11.79 3.25-3.25 7.18-4.876 11.79-4.876 4.611 0 8.543 1.625 11.794 4.876 3.249 3.25 4.873 7.18 4.873 11.79 0 3.445-.917 6.528-2.75 9.25-1.833 2.723-4.25 4.723-7.25 6v4.75h-3.333V70h-20V50H40v13.333c0 1.834-.652 3.404-1.957 4.71C36.737 69.348 35.167 70 33.333 70h-20Zm50-36.667c2.778 0 5.14-.972 7.084-2.916 1.944-1.945 2.916-4.306 2.916-7.084 0-2.777-.972-5.139-2.916-7.083-1.945-1.944-4.306-2.917-7.084-2.917-2.777 0-5.139.973-7.083 2.917s-2.917 4.305-2.917 7.083c0 2.778.973 5.14 2.917 7.084s4.306 2.916 7.083 2.916Zm-50 30h20v-6.666l-6.666 6.666v-9.416l6.666-6.667V40l-6.666 6.667V37.25l6.666-6.667v-7.25L26.667 30v-9.417l3.916-3.916h-14.5L20 20.583V30l-6.667-6.667v7.25L20 37.25v9.417L13.333 40v7.25L20 53.917v9.416l-6.667-6.666v6.666Z" fill="#000"/></g><defs><clipPath id="na"><path fill="#fff" d="M0 0h80v80H0z"/></clipPath></defs></symbol><symbol fill="none" viewBox="0 0 70 60" id="--icons--services-5" xmlns="http://www.w3.org/2000/svg"><path d="m9.779 3.828 4.774 15.27c.21.666 1.015 1.068 1.792.888l7.16-1.644c.778-.18 1.247-.87 1.037-1.536l-4.774-15.27C19.558.87 18.753.468 17.976.648l-7.154 1.644c-.784.174-1.253.864-1.043 1.536Zm21.007 17.964v-8.034h-4.921L23.75 6.87h20.433l2.205 6.888H39.22v7.986c3.892 1.398 6.643 4.698 6.643 8.532 0 3.84-2.744 7.14-6.643 8.538V46.8h5.887v6.888H24.906v-6.894h5.88v-8.028c-3.822-1.422-6.503-4.686-6.503-8.49 0-3.798 2.68-7.062 6.503-8.484ZM45.458 3.828l4.774 15.27c.21.666 1.015 1.068 1.792.888l7.16-1.644c.778-.18 1.247-.87 1.037-1.536l-4.774-15.27C55.237.87 54.432.468 53.655.648l-7.161 1.644c-.777.174-1.24.864-1.036 1.536Zm2.212 54.318v-15.81c0-.69.658-1.254 1.463-1.254h7.413c.805 0 1.463.564 1.463 1.254v15.81c0 .69-.658 1.254-1.463 1.254H49.14c-.812 0-1.47-.564-1.47-1.254Zm-35.686 0v-15.81c0-.69.658-1.254 1.463-1.254h7.413c.805 0 1.463.564 1.463 1.254v15.81c0 .69-.658 1.254-1.463 1.254h-7.413c-.798 0-1.463-.564-1.463-1.254ZM35.07 26.382c-2.513 0-4.543 1.734-4.543 3.894 0 2.148 2.03 3.894 4.543 3.894 2.52 0 4.543-1.734 4.543-3.894-.007-2.16-2.023-3.894-4.543-3.894Z" fill="#000"/></symbol><symbol fill="none" viewBox="0 0 80 70" id="--icons--services-6" xmlns="http://www.w3.org/2000/svg"><path d="m68.824 4.466-5.456 17.815c-.24.777-1.16 1.246-2.048 1.036l-8.184-1.918c-.888-.21-1.424-1.015-1.184-1.792l5.456-17.815c.24-.777 1.16-1.246 2.048-1.036l8.176 1.918c.896.203 1.432 1.008 1.192 1.792ZM44.816 25.424v-9.373h5.624l2.416-8.036H29.504l-2.52 8.036h8.192v9.317c-4.448 1.631-7.592 5.481-7.592 9.954 0 4.48 3.136 8.33 7.592 9.961V54.6h-6.728v8.036h23.088v-8.043h-6.72v-9.366c4.368-1.659 7.432-5.467 7.432-9.905 0-4.431-3.064-8.239-7.432-9.898ZM28.048 4.466l-5.456 17.815c-.24.777-1.16 1.246-2.048 1.036l-8.184-1.918c-.888-.21-1.424-1.015-1.184-1.792l5.456-17.815c.24-.777 1.16-1.246 2.048-1.036l8.184 1.918c.888.203 1.416 1.008 1.184 1.792ZM25.52 67.837V49.392c0-.805-.752-1.463-1.672-1.463h-8.472c-.92 0-1.672.658-1.672 1.463v18.445c0 .805.752 1.463 1.672 1.463h8.464c.928 0 1.68-.658 1.68-1.463Zm40.784 0V49.392c0-.805-.752-1.463-1.672-1.463H56.16c-.92 0-1.672.658-1.672 1.463v18.445c0 .805.752 1.463 1.672 1.463h8.472c.912 0 1.672-.658 1.672-1.463ZM39.92 30.779c2.872 0 5.192 2.023 5.192 4.543 0 2.506-2.32 4.543-5.192 4.543-2.88 0-5.192-2.023-5.192-4.543.008-2.52 2.312-4.543 5.192-4.543Z" fill="#000"/></symbol><symbol fill="none" viewBox="0 0 80 80" id="--icons--services-7" xmlns="http://www.w3.org/2000/svg"><g clip-path="url(#qa)"><path d="M21.967 2.2c7.8-6.033 16.266 1.333 18.166 12.8 1.434 0 2.834.4 4.1 1.133 1.734-2 3.267-4.733 2.667-7.8-1.4-7.166 6.633-12.966 14.267-3.066 6.033 7.8-1.334 16.266-12.834 18.166a7.961 7.961 0 0 1-1.133 4.134c2 1.7 4.733 3.233 7.8 2.633 7.1-1.4 12.933 6.6 3.033 14.267-7.8 6.033-16.266-1.334-18.166-12.8-1.434 0-2.834-.434-4.067-1.167-1.733 2-3.3 4.767-2.7 7.833 1.4 7.134-6.633 12.967-14.267 3.067-6.066-7.833 1.334-16.3 12.834-18.167 0-1.433.433-2.833 1.166-4.1-2-1.7-4.733-3.266-7.833-2.666-7.1 1.4-12.933-6.6-3.033-14.267Zm-5.3 51.133h6.666A6.667 6.667 0 0 1 30 60v20h-6.667v-6.667h-6.666V80H10V60a6.667 6.667 0 0 1 6.667-6.667Zm0 6.667v6.667h6.666V60h-6.666ZM43.1 53.333H50L40.233 80h-6.9L43.1 53.333Zm16.9 0h10V60H60v13.333h10V80H60a6.666 6.666 0 0 1-6.667-6.667V60A6.667 6.667 0 0 1 60 53.333Z" fill="#000"/></g><defs><clipPath id="qa"><path fill="#fff" d="M0 0h80v80H0z"/></clipPath></defs></symbol><symbol fill="none" viewBox="0 0 80 80" id="--icons--services-8" xmlns="http://www.w3.org/2000/svg"><path d="M23.12 23.693c-1.016.415-1.293 1.8-.538 2.646l.446.508 2.016.046 2.016.062v3.185l-9.11.046c-8.31.047-9.201.077-9.97.339-3.355 1.108-5.725 3.416-6.802 6.632-.493 1.523-.508 4.277-.016 5.847a9.77 9.77 0 0 0 2.446 3.986c1.616 1.615 3.693 2.6 5.878 2.8l1.108.108v2.724c0 2.524.03 2.755.324 3.124.17.231.57.477.876.57.4.123 5.71.153 17.22.123l16.664-.046.493-.508.508-.493.047-11.71c.03-7.987-.016-11.896-.124-12.31-.123-.432-.323-.709-.661-.909-.477-.292-.831-.308-8.063-.308H30.29v-3.232h1.693c1.123 0 1.878-.077 2.231-.215.539-.231 1-.908 1-1.478s-.461-1.246-1-1.477c-.431-.17-1.554-.215-5.647-.2-2.817 0-5.278.062-5.448.14ZM10.594 40.08v6.555l-.8-.107c-1.646-.216-2.892-.847-4-2.032-2.786-2.97-2.216-7.54 1.23-9.91.862-.6 2.094-1.031 2.925-1.046h.646v6.54ZM61.99 31.54c-6.556.754-11.941 1.37-11.957 1.37-.077.03-.047 11.556.015 11.556.246 0 25.467-11.31 25.682-11.526.37-.37.539-1.077.385-1.678-.17-.615-.908-1.108-1.661-1.092-.292.016-5.91.632-12.464 1.37ZM72.3 38.418c-.493.2-2.185 1.647-3.37 2.908-.877.923-1.416 1.647-1.816 2.493-.57 1.154-.585 1.231-.585 2.878 0 1.584.03 1.754.492 2.739.616 1.308 1.708 2.385 3.077 3.062.985.477 1.139.508 2.663.508 2.046-.015 3-.353 4.309-1.554 1.616-1.493 2.262-3.078 2.108-5.202-.062-1.03-.185-1.415-.739-2.539-.538-1.093-.908-1.57-2.2-2.862-2.139-2.123-3.155-2.754-3.939-2.43Zm1.43 4.51c2.278 2.077 2.816 4.246 1.447 5.8-1 1.14-2.401 1.417-3.755.74-1.6-.8-2.154-2.463-1.37-4.155.354-.785 2.4-3.155 2.724-3.155.062 0 .493.354.954.77Z" fill="#000"/></symbol><symbol fill="none" viewBox="0 0 21 21" id="--icons--tel" xmlns="http://www.w3.org/2000/svg"><path d="m6.8 2.134.942-.301c.883-.282 1.826.174 2.204 1.065l.753 1.774c.327.773.145 1.682-.45 2.247L8.59 8.493c.102.941.419 1.868.95 2.78a7.593 7.593 0 0 0 1.985 2.27l1.992-.665c.754-.251 1.577.039 2.039.719l1.079 1.583c.538.791.44 1.881-.227 2.552l-.715.718c-.712.715-1.73.975-2.67.68-2.223-.692-4.264-2.75-6.128-6.17C5.03 9.533 4.37 6.623 4.92 4.236c.231-1.004.946-1.805 1.88-2.103Z" fill="#000"/></symbol></svg>