<svg width="16" height="29" viewBox="0 0 16 29"
    xmlns="http://www.w3.org/2000/svg">
    <path d="M0.35616 28.001C0.127829 27.7831 0 27.4904 0 27.1857C0 26.881 0.127829 26.5884 0.35616 26.3704L13.1127 14.1673L0.35616 1.96658C0.127829 1.74859 0 1.45597 0 1.15125C0 0.846531 0.127829 0.553902 0.35616 0.335917C0.467144 0.229622 0.599839 0.145138 0.746413 0.08745C0.892987 0.0297623 1.05047 4.3869e-05 1.20956 4.3869e-05C1.36866 4.3869e-05 1.52614 0.0297623 1.67271 0.08745C1.81928 0.145138 1.95198 0.229622 2.06296 0.335917L15.6284 13.3153C15.8667 13.5432 16 13.849 16 14.1673C16 14.4856 15.8667 14.7913 15.6284 15.0192L2.06296 27.9986C1.95198 28.1049 1.81928 28.1894 1.67271 28.2471C1.52614 28.3048 1.36866 28.3345 1.20956 28.3345C1.05047 28.3345 0.892987 28.3048 0.746413 28.2471C0.599839 28.1894 0.467144 28.1049 0.35616 27.9986V28.001Z" />
</svg>
