<svg width="44" height="23" viewBox="0 0 44 23" fill="none" xmlns="http://www.w3.org/2000/svg">
<path d="M43.4822 0.51198C43.1437 0.183754 42.6893 0 42.2161 0C41.7429 0 41.2885 0.183754 40.95 0.51198L22 18.8495L3.05379 0.51198C2.71529 0.183754 2.26088 0 1.78769 0C1.3145 0 0.860075 0.183754 0.521568 0.51198C0.356506 0.67152 0.225315 0.862269 0.135735 1.07297C0.0461536 1.28367 0 1.51005 0 1.73874C0 1.96744 0.0461536 2.19382 0.135735 2.40452C0.225315 2.61522 0.356506 2.80597 0.521568 2.96551L20.677 22.4658C21.031 22.8083 21.5057 23 22 23C22.4943 23 22.969 22.8083 23.323 22.4658L43.4784 2.96551C43.6435 2.80597 43.7747 2.61522 43.8643 2.40452C43.9538 2.19382 44 1.96744 44 1.73874C44 1.51005 43.9538 1.28367 43.8643 1.07297C43.7747 0.862269 43.6435 0.67152 43.4784 0.51198H43.4822Z" fill="black"/>
</svg>
