<svg width="32" height="32" viewBox="0 0 32 32" fill="none" xmlns="http://www.w3.org/2000/svg">
<g clip-path="url(#clip0_133_252)">
<path d="M32 13.3333C32 15.75 31.2857 17.9826 29.8571 20.0312C28.4286 22.0799 26.4881 23.6979 24.0357 24.8854C21.5833 26.0729 18.9048 26.6667 16 26.6667C15.1667 26.6667 14.3036 26.6111 13.4107 26.5C11.0536 28.9306 8.31548 30.6111 5.19643 31.5417C4.6131 31.7361 3.93452 31.8889 3.16071 32C2.95833 32.0278 2.77679 31.9653 2.61607 31.8125C2.45536 31.6597 2.35119 31.4583 2.30357 31.2083V31.1875C2.26786 31.1319 2.26488 31.0486 2.29464 30.9375C2.3244 30.8264 2.33631 30.7569 2.33036 30.7292C2.3244 30.7014 2.35119 30.6354 2.41071 30.5312L2.51786 30.3438L2.64286 30.1667L2.78571 29.9792C2.86905 29.8681 3.05357 29.6285 3.33929 29.2604C3.625 28.8924 3.83036 28.6285 3.95536 28.4688C4.08036 28.309 4.26488 28.0347 4.50893 27.6458C4.75298 27.2569 4.94643 26.9028 5.08929 26.5833C5.23214 26.2639 5.39286 25.8542 5.57143 25.3542C5.75 24.8542 5.90476 24.3264 6.03571 23.7708C4.16667 22.5347 2.69345 21.0069 1.61607 19.1875C0.538691 17.3681 0 15.4167 0 13.3333C0 11.5278 0.422619 9.80208 1.26786 8.15625C2.1131 6.51042 3.25 5.09028 4.67857 3.89583C6.10714 2.70139 7.80952 1.75347 9.78572 1.05208C11.7619 0.350694 13.8333 0 16 0C18.9048 0 21.5833 0.59375 24.0357 1.78125C26.4881 2.96875 28.4286 4.58681 29.8571 6.63542C31.2857 8.68403 32 10.9167 32 13.3333Z" fill="black"/>
</g>
<defs>
<clipPath id="clip0_133_252">
<rect width="32" height="32" fill="white"/>
</clipPath>
</defs>
</svg>
