<svg width="21" height="21" viewBox="0 0 21 21" fill="none" xmlns="http://www.w3.org/2000/svg">
<path d="M19.25 7.532V14.6562C19.25 15.3826 18.9721 16.0815 18.4733 16.6095C17.9744 17.1374 17.2925 17.4545 16.5673 17.4956L16.4062 17.5H4.59375C3.86738 17.5 3.16852 17.2221 2.64055 16.7233C2.11257 16.2244 1.7955 15.5425 1.75438 14.8173L1.75 14.6562V7.532L10.1955 11.956C10.2895 12.0052 10.3939 12.0309 10.5 12.0309C10.6061 12.0309 10.7105 12.0052 10.8045 11.956L19.25 7.532ZM4.59375 3.5H16.4062C17.1111 3.49992 17.7909 3.76162 18.3138 4.23436C18.8366 4.7071 19.1653 5.35717 19.236 6.0585L10.5 10.6348L1.764 6.0585C1.83183 5.38502 2.13767 4.75783 2.62653 4.28966C3.11539 3.82148 3.75522 3.54304 4.431 3.50438L4.59375 3.5H16.4062H4.59375Z" fill="black"/>
</svg>
