<svg width="32" height="32" viewBox="0 0 32 32" fill="none" xmlns="http://www.w3.org/2000/svg">
<path d="M16 2.66675V10.6667C16 11.374 16.2809 12.0523 16.781 12.5524C17.2811 13.0525 17.9594 13.3334 18.6666 13.3334H26.6666V26.6667C26.6666 27.374 26.3857 28.0523 25.8856 28.5524C25.3855 29.0525 24.7072 29.3334 24 29.3334H14.92C16.3 27.8969 17.143 26.0288 17.3072 24.0435C17.4713 22.0583 16.9466 20.0771 15.8212 18.4334C14.6959 16.7897 13.0387 15.5838 11.1285 15.0187C9.21832 14.4536 7.17178 14.5638 5.33331 15.3307V5.33341C5.33331 4.62617 5.61426 3.94789 6.11436 3.4478C6.61446 2.9477 7.29274 2.66675 7.99998 2.66675H16ZM18 3.33341V10.6667C18 10.8436 18.0702 11.0131 18.1952 11.1382C18.3203 11.2632 18.4898 11.3334 18.6666 11.3334H26L18 3.33341ZM8.66665 16.0001C6.72172 16.0001 4.85646 16.7727 3.4812 18.148C2.10593 19.5232 1.33331 21.3885 1.33331 23.3334C1.33331 25.2783 2.10593 27.1436 3.4812 28.5189C4.85646 29.8941 6.72172 30.6667 8.66665 30.6667C10.6116 30.6667 12.4768 29.8941 13.8521 28.5189C15.2274 27.1436 16 25.2783 16 23.3334C16 21.3885 15.2274 19.5232 13.8521 18.148C12.4768 16.7727 10.6116 16.0001 8.66665 16.0001ZM11.9706 20.9747L9.61065 23.3347L11.9706 25.6934C12.0343 25.7549 12.0851 25.8285 12.12 25.9098C12.155 25.9911 12.1734 26.0786 12.1741 26.1671C12.1749 26.2557 12.158 26.3435 12.1245 26.4254C12.091 26.5073 12.0415 26.5818 11.9789 26.6443C11.9163 26.7069 11.8419 26.7564 11.7599 26.79C11.678 26.8235 11.5902 26.8404 11.5017 26.8396C11.4132 26.8388 11.3257 26.8204 11.2444 26.7855C11.163 26.7505 11.0895 26.6998 11.028 26.6361L8.66798 24.2761L6.30931 26.6334C6.24733 26.6953 6.17376 26.7444 6.09281 26.7779C6.01186 26.8113 5.9251 26.8285 5.83751 26.8285C5.6606 26.8283 5.49098 26.7579 5.36598 26.6327C5.24097 26.5076 5.17082 26.3379 5.17094 26.1609C5.17107 25.984 5.24146 25.8144 5.36665 25.6894L7.72531 23.3334L5.36665 20.9734C5.30297 20.9119 5.25218 20.8384 5.21725 20.757C5.18231 20.6757 5.16391 20.5882 5.16315 20.4997C5.16238 20.4112 5.17924 20.3234 5.21276 20.2414C5.24629 20.1595 5.29579 20.0851 5.35838 20.0225C5.42098 19.9599 5.49541 19.9104 5.57734 19.8769C5.65927 19.8433 5.74706 19.8265 5.83558 19.8272C5.9241 19.828 6.01158 19.8464 6.09292 19.8813C6.17425 19.9163 6.24781 19.9671 6.30931 20.0307L8.66931 22.3894L11.0293 20.0307C11.156 19.9143 11.3227 19.8514 11.4947 19.8551C11.6667 19.8588 11.8306 19.9288 11.9522 20.0505C12.0737 20.1723 12.1435 20.3363 12.147 20.5083C12.1504 20.6803 12.0872 20.8469 11.9706 20.9734V20.9747Z" fill="black"/>
</svg>
