<svg width="32" height="32" viewBox="0 0 32 32" fill="none" xmlns="http://www.w3.org/2000/svg">
<path d="M15.1377 0V5.07795H16.8624V0H15.1375H15.1377ZM8.09475 1.526L6.68162 2.51541L9.5937 6.67397L11.0061 5.68453L8.09475 1.526ZM23.905 1.526L20.9938 5.68456L22.4064 6.674L25.3184 2.51541L23.9053 1.526H23.905ZM15.9997 6.46731C11.7803 6.46731 8.35989 9.02952 8.35989 12.1906L12.7005 25.3359H19.2997L23.6399 12.1906C23.6399 9.02957 20.2197 6.46731 16.0001 6.46731H15.9997ZM2.27906 7.99128L1.68976 9.61299L6.45906 11.3494L7.05056 9.72843L2.27896 7.99128H2.27906ZM29.7207 7.99128L24.9491 9.72856L25.5386 11.3497L30.3102 9.61301L29.7207 7.99128ZM6.82016 15.4048L1.91616 16.7202L2.36112 18.385L7.26512 17.0715L6.82024 15.4048H6.82016ZM25.1796 15.4048L24.735 17.0715L29.639 18.3848L30.0836 16.7199L25.1796 15.4048V15.4048ZM12.6043 26.2942V28.5791H19.3959V26.2945H12.6043L12.6043 26.2942ZM12.6043 29.715V32H19.3959V29.7154H12.6043L12.6043 29.715Z" fill="black"/>
</svg>
