<svg width="27" height="27" viewBox="0 0 27 27" fill="none" xmlns="http://www.w3.org/2000/svg">
<path d="M13.5 17.0145C11.5647 17.0145 9.98526 15.4352 9.98526 13.4998C9.98526 11.5645 11.5647 9.98506 13.5 9.98506C15.4354 9.98506 17.0147 11.5645 17.0147 13.4998C17.0147 15.4352 15.4354 17.0145 13.5 17.0145ZM24.0416 13.4998C24.0416 14.9553 24.0548 16.3976 23.973 17.8504C23.8913 19.5379 23.5063 21.0355 22.2724 22.2695C21.0357 23.5061 19.5407 23.8885 17.8532 23.9702C16.3978 24.052 14.9555 24.0388 13.5026 24.0388C12.0472 24.0388 10.6049 24.052 9.15205 23.9702C7.46455 23.8885 5.9669 23.5035 4.73291 22.2695C3.49629 21.0329 3.11397 19.5379 3.03223 17.8504C2.95049 16.3949 2.96367 14.9526 2.96367 13.4998C2.96367 12.047 2.95049 10.602 3.03223 9.14922C3.11397 7.46172 3.49893 5.96406 4.73291 4.73008C5.96953 3.49346 7.46455 3.11113 9.15205 3.02939C10.6075 2.94765 12.0498 2.96084 13.5026 2.96084C14.9581 2.96084 16.4004 2.94765 17.8532 3.02939C19.5407 3.11113 21.0384 3.49609 22.2724 4.73008C23.509 5.9667 23.8913 7.46172 23.973 9.14922C24.0574 10.602 24.0416 12.0443 24.0416 13.4998ZM13.5 8.09189C10.5073 8.09189 8.09209 10.5071 8.09209 13.4998C8.09209 16.4925 10.5073 18.9077 13.5 18.9077C16.4927 18.9077 18.9079 16.4925 18.9079 13.4998C18.9079 10.5071 16.4927 8.09189 13.5 8.09189ZM19.1294 17.8662C18.4307 17.8662 17.8664 18.4305 17.8664 19.1292C17.8664 19.8279 18.4307 20.3922 19.1294 20.3922C19.8281 20.3922 20.3924 19.8279 20.3924 19.1292C20.3926 18.9633 20.3601 18.799 20.2967 18.6456C20.2333 18.4923 20.1402 18.353 20.0229 18.2357C19.9056 18.1183 19.7663 18.0253 19.613 17.9619C19.4596 17.8985 19.2953 17.866 19.1294 17.8662Z" fill="black"/>
</svg>
