<svg width="32" height="32" viewBox="0 0 32 32" fill="none" xmlns="http://www.w3.org/2000/svg">
<path d="M27.6844 16.6781C28.2094 15.9844 28.5 15.1344 28.5 14.25C28.5 12.8469 27.7156 11.5187 26.4531 10.7781C26.1281 10.5875 25.7581 10.4871 25.3813 10.4875H17.8875L18.075 6.64685C18.1188 5.71872 17.7906 4.83747 17.1531 4.1656C16.8403 3.83444 16.4628 3.57095 16.0441 3.39143C15.6254 3.2119 15.1743 3.12015 14.7188 3.12185C13.0938 3.12185 11.6562 4.2156 11.225 5.78122L8.54062 15.5H8.53125V28.875H23.2906C23.5781 28.875 23.8594 28.8187 24.1187 28.7062C25.6062 28.0718 26.5656 26.6187 26.5656 25.0062C26.5656 24.6125 26.5094 24.225 26.3969 23.85C26.9219 23.1562 27.2125 22.3062 27.2125 21.4219C27.2125 21.0281 27.1562 20.6406 27.0438 20.2656C27.5688 19.5718 27.8594 18.7219 27.8594 17.8375C27.8531 17.4437 27.7969 17.0531 27.6844 16.6781ZM3.5 16.5V27.875C3.5 28.4281 3.94687 28.875 4.5 28.875H6.53125V15.5H4.5C3.94687 15.5 3.5 15.9469 3.5 16.5Z" fill="black"/>
</svg>
