<svg width="38" height="41" viewBox="0 0 38 41"  xmlns="http://www.w3.org/2000/svg">
<rect width="38" height="41" rx="12" fill="#FFFCFC"/>
<g clip-path="url(#clip0_86_168)">
<path d="M17.7292 30.5763C12.0535 21.9368 11 21.0501 11 17.875C11 13.5257 14.3579 10 18.5 10C22.6421 10 26 13.5257 26 17.875C26 21.0501 24.9465 21.9368 19.2708 30.5763C18.8983 31.1413 18.1016 31.1412 17.7292 30.5763ZM18.5 21.1562C20.2259 21.1562 21.625 19.6872 21.625 17.875C21.625 16.0628 20.2259 14.5938 18.5 14.5938C16.7741 14.5938 15.375 16.0628 15.375 17.875C15.375 19.6872 16.7741 21.1562 18.5 21.1562Z"/>
</g>
<defs>
<clipPath id="clip0_86_168">
<rect width="15" height="21" fill="white" transform="translate(11 10)"/>
</clipPath>
</defs>
</svg>
