<svg width="80" height="80" viewBox="0 0 80 80" fill="none" xmlns="http://www.w3.org/2000/svg">
<g clip-path="url(#clip0_198_302)">
<path d="M63.3333 26.6666C62.3889 26.6666 61.5978 26.3477 60.96 25.71C60.32 25.07 60 24.2777 60 23.3333C60 22.8888 60.0967 22.4588 60.29 22.0433C60.4855 21.6255 60.7222 21.2777 61 21C61.6667 20.3333 63.1944 19.5833 65.5833 18.75L69.1667 17.5L67.9167 21.0833C67.5833 22.0277 67.2089 22.9444 66.7933 23.8333C66.3755 24.7222 66 25.3333 65.6667 25.6666C65.3889 25.9444 65.0422 26.18 64.6267 26.3733C64.2089 26.5688 63.7778 26.6666 63.3333 26.6666ZM13.3333 70C11.5 70 9.9311 69.3477 8.62666 68.0433C7.31999 66.7366 6.66666 65.1666 6.66666 63.3333V16.6666C6.66666 14.8333 7.31999 13.2633 8.62666 11.9566C9.9311 10.6522 11.5 9.99996 13.3333 9.99996H33.3333C35.1667 9.99996 36.7367 10.6522 38.0433 11.9566C39.3478 13.2633 40 14.8333 40 16.6666V43.3333H53.3333V63.3333H60V43.3333H56.6667V38.5833C53.6667 37.3055 51.25 35.3055 49.4167 32.5833C47.5833 29.8611 46.6667 26.7777 46.6667 23.3333C46.6667 18.7222 48.2922 14.7922 51.5433 11.5433C54.7922 8.29218 58.7222 6.66663 63.3333 6.66663C67.9444 6.66663 71.8755 8.29218 75.1267 11.5433C78.3755 14.7922 80 18.7222 80 23.3333C80 26.7777 79.0833 29.8611 77.25 32.5833C75.4167 35.3055 73 37.3055 70 38.5833V43.3333H66.6667V70H46.6667V50H40V63.3333C40 65.1666 39.3478 66.7366 38.0433 68.0433C36.7367 69.3477 35.1667 70 33.3333 70H13.3333ZM63.3333 33.3333C66.1111 33.3333 68.4722 32.3611 70.4167 30.4166C72.3611 28.4722 73.3333 26.1111 73.3333 23.3333C73.3333 20.5555 72.3611 18.1944 70.4167 16.25C68.4722 14.3055 66.1111 13.3333 63.3333 13.3333C60.5555 13.3333 58.1944 14.3055 56.25 16.25C54.3055 18.1944 53.3333 20.5555 53.3333 23.3333C53.3333 26.1111 54.3055 28.4722 56.25 30.4166C58.1944 32.3611 60.5555 33.3333 63.3333 33.3333ZM13.3333 63.3333H33.3333V56.6666L26.6667 63.3333V53.9166L33.3333 47.25V40L26.6667 46.6666V37.25L33.3333 30.5833V23.3333L26.6667 30V20.5833L30.5833 16.6666H16.0833L20 20.5833V30L13.3333 23.3333V30.5833L20 37.25V46.6666L13.3333 40V47.25L20 53.9166V63.3333L13.3333 56.6666V63.3333Z" fill="black"/>
</g>
<defs>
<clipPath id="clip0_198_302">
<rect width="80" height="80" fill="white"/>
</clipPath>
</defs>
</svg>
