<svg width="70" height="60" viewBox="0 0 70 60" fill="none" xmlns="http://www.w3.org/2000/svg">
<path d="M9.77894 3.82799L14.5529 19.098C14.7629 19.764 15.5679 20.166 16.3449 19.986L23.5059 18.342C24.2829 18.162 24.7519 17.472 24.5419 16.806L19.7679 1.53599C19.5579 0.86999 18.7529 0.467991 17.9759 0.647991L10.8219 2.29199C10.0379 2.46599 9.56894 3.15599 9.77894 3.82799ZM30.7859 21.792V13.758H25.8649L23.7509 6.86999H44.1839L46.3889 13.758H39.2209V21.744C43.1129 23.142 45.8639 26.442 45.8639 30.276C45.8639 34.116 43.1199 37.416 39.2209 38.814V46.8H45.1079V53.688H24.9059V46.794H30.7859V38.766C26.9639 37.344 24.2829 34.08 24.2829 30.276C24.2829 26.478 26.9639 23.214 30.7859 21.792ZM45.4579 3.82799L50.2319 19.098C50.4419 19.764 51.2469 20.166 52.0239 19.986L59.1849 18.342C59.9619 18.162 60.4309 17.472 60.2209 16.806L55.4469 1.53599C55.2369 0.86999 54.4319 0.467991 53.6549 0.647991L46.4939 2.29199C45.7169 2.46599 45.2549 3.15599 45.4579 3.82799ZM47.6699 58.146V42.336C47.6699 41.646 48.3279 41.082 49.1329 41.082H56.5459C57.3509 41.082 58.0089 41.646 58.0089 42.336V58.146C58.0089 58.836 57.3509 59.4 56.5459 59.4H49.1399C48.3279 59.4 47.6699 58.836 47.6699 58.146ZM11.9839 58.146V42.336C11.9839 41.646 12.6419 41.082 13.4469 41.082H20.8599C21.6649 41.082 22.3229 41.646 22.3229 42.336V58.146C22.3229 58.836 21.6649 59.4 20.8599 59.4H13.4469C12.6489 59.4 11.9839 58.836 11.9839 58.146ZM35.0699 26.382C32.5569 26.382 30.5269 28.116 30.5269 30.276C30.5269 32.424 32.5569 34.17 35.0699 34.17C37.5899 34.17 39.6129 32.436 39.6129 30.276C39.6059 28.116 37.5899 26.382 35.0699 26.382Z" fill="black"/>
</svg>
