<svg width="70" height="70" viewBox="0 0 70 70" fill="none" xmlns="http://www.w3.org/2000/svg">
<g clip-path="url(#clip0_198_165)">
<path d="M31.5673 0.859627C23.84 1.61073 16.3276 5.18842 10.7465 10.7513C0.371755 21.1442 -2.25744 36.9383 4.21756 50.1214C8.29575 58.4213 15.4148 64.6282 24.1795 67.5437C31.2446 69.8866 38.7577 69.8866 45.8228 67.5437C63.7995 61.5692 73.5119 42.1617 67.5381 24.185C62.4764 8.96283 47.5945 -0.678268 31.5673 0.859627ZM39.7419 10.4832C44.7861 11.4492 48.9182 13.6675 52.6387 17.3698C56.3053 21.0546 58.4164 24.9718 59.5252 30.177C60.0978 32.8419 60.0978 37.1707 59.5252 39.8363C58.7916 43.3062 57.4323 46.4905 55.5367 49.2807C54.3201 51.0517 51.0469 54.3249 49.2759 55.5415C46.4857 57.4378 43.3014 58.7972 39.8315 59.5308C37.1666 60.1034 32.8378 60.1034 30.1722 59.5308C24.967 58.422 21.0498 56.3108 17.365 52.6442C13.6263 48.9055 11.3905 44.6663 10.3888 39.4793C9.90576 36.9572 9.95965 32.6641 10.4784 30.1777C11.5158 25.2588 13.5731 21.3059 16.882 17.8178C20.9602 13.5429 26.2193 10.8955 32.1574 10.1444C34.0355 9.91063 37.6489 10.0716 39.7419 10.4832Z" fill="black"/>
<path d="M32.4262 11.753C26.9165 12.4502 22.4274 14.6328 18.5277 18.5325C15.0935 21.9667 13.0901 25.669 12.0884 30.4094C11.534 32.9854 11.534 37.0279 12.0884 39.6039C13.0901 44.3436 15.0935 48.0466 18.5277 51.4808C21.9619 54.915 25.6649 56.9184 30.4046 57.9201C32.9624 58.4745 37.0049 58.4745 39.5984 57.9201C44.3206 56.9366 48.0411 54.915 51.4753 51.4808C54.9095 48.0466 56.9129 44.3436 57.9146 39.6039C58.469 37.0279 58.469 32.9854 57.9146 30.4094C56.9129 25.669 54.9095 21.9667 51.4753 18.5325C48.0586 15.1158 44.2667 13.0592 39.6698 12.1107C37.6132 11.6991 34.2147 11.5206 32.4262 11.753ZM37.4879 15.0801C38.0248 15.2411 38.9369 15.5988 39.5088 15.8851C40.5105 16.3856 40.5644 16.4395 40.4748 16.9939C40.4209 17.3159 40.3313 18.0495 40.2781 18.6396C40.1353 19.999 39.5627 22.4672 39.0979 23.7195C37.273 28.6384 33.5168 29.1571 31.3706 24.7569C30.6909 23.3793 29.9034 20.4099 29.7249 18.6396C29.671 18.0495 29.5821 17.3159 29.5282 16.9939C29.4386 16.4395 29.4925 16.3856 30.476 15.9026C31.5848 15.3482 32.9799 14.8652 33.8388 14.7217C34.662 14.6153 36.4148 14.7763 37.4879 15.0801ZM26.7023 19.1226C29.636 22.7892 31.0129 25.9196 30.7091 28.1736C30.5838 29.05 30.119 29.7297 29.2601 30.3198C28.7057 30.7132 28.509 30.7314 27.1314 30.6775C25.8077 30.6061 25.4143 30.4983 24.0724 29.8725C23.2142 29.4791 22.0151 28.7994 21.3893 28.3703C19.8689 27.3511 18.009 25.8664 18.009 25.6697C18.009 25.2938 18.7958 23.219 19.2256 22.4861C19.8514 21.3948 21.0862 20.1068 22.1411 19.4453C22.9279 18.9266 25.1462 18.032 25.6292 18.0145C25.7363 18.0138 26.2193 18.5143 26.7023 19.1226ZM46.1812 18.5857C48.9182 19.6413 51.0469 22.0556 51.8155 24.9711C52.0122 25.7404 52.0122 25.7579 51.3507 26.313C49.0792 28.2093 46.6285 29.7115 44.6608 30.3912C43.5338 30.7671 41.6739 30.8385 41.0474 30.534C39.8133 29.89 39.2589 28.9065 39.2589 27.4218C39.2771 25.2574 40.6365 22.4672 43.3014 19.1219C44.3031 17.8703 44.3206 17.8703 46.1812 18.5857ZM37.0406 29.5687C39.205 30.338 40.7436 32.5199 40.7793 34.9167C40.7975 36.4553 40.3145 37.6894 39.2771 38.8339C37.4347 40.8555 34.823 41.356 32.373 40.1758C30.2079 39.1209 28.8303 36.4378 29.2776 34.076C29.9755 30.3919 33.5168 28.3346 37.0406 29.5687ZM18.6348 29.7297C20.4058 29.9089 23.3752 30.6957 24.7521 31.3754C29.1523 33.5216 28.6336 37.2785 23.7147 39.1027C22.4624 39.5675 19.9942 40.1401 18.6348 40.2829C18.0447 40.3368 17.3111 40.4257 16.9891 40.4796C16.4347 40.5692 16.3808 40.5153 15.8803 39.5136C14.306 36.4014 14.306 33.6462 15.8985 30.4808C16.3815 29.4973 16.4354 29.4434 16.9898 29.533C17.3111 29.5869 18.0447 29.6758 18.6348 29.7297ZM54.1234 30.499C55.6613 33.558 55.6613 36.5806 54.1052 39.5318C53.5865 40.4978 53.5151 40.5517 52.9964 40.4796C52.6926 40.4257 51.959 40.3361 51.3689 40.2829C50.0095 40.1401 47.5413 39.5675 46.289 39.1027C42.4075 37.6537 41.1552 35.042 43.2664 32.7523C44.8043 31.0891 48.0068 30.051 53.373 29.4791C53.4969 29.4791 53.8371 29.9264 54.1234 30.499ZM28.6336 39.389C29.2062 39.5143 30.1183 40.2836 30.4578 40.9451C30.8337 41.6787 30.798 43.4497 30.3864 44.6656C29.7067 46.6333 28.2038 49.084 26.3082 51.3555C25.7538 52.0177 25.7356 52.0177 24.967 51.8203C22.0515 51.051 19.6365 48.9223 18.5816 46.186C17.8662 44.3261 17.8662 44.3079 19.1185 43.3062C21.8016 41.16 24.6457 39.6214 26.4342 39.3351C27.3638 39.1741 27.6501 39.1923 28.6336 39.389ZM44.2849 39.4961C45.2327 39.7103 47.2361 40.7127 48.6851 41.678C50.1341 42.6615 51.994 44.1644 51.994 44.3429C51.994 44.4325 51.833 45.0051 51.6181 45.6127C50.706 48.3497 48.8636 50.3349 46.3058 51.3723C44.3381 52.1598 44.3199 52.1598 43.3007 50.8893C39.7055 46.3995 38.3636 42.4641 39.7769 40.586C40.7793 39.2455 41.942 38.9774 44.2849 39.4961ZM35.7708 42.3584C37.077 42.7161 38.3286 44.2008 39.0979 46.2938C39.5627 47.5461 40.1353 50.0143 40.2781 51.3737C40.332 51.9638 40.4209 52.6974 40.4748 53.0019C40.5462 53.5206 40.4923 53.592 39.527 54.1107C36.5758 55.6668 33.5525 55.6668 30.476 54.1289C29.5282 53.6459 29.4386 53.5563 29.5282 53.1097C29.5639 52.8416 29.671 52.0723 29.7249 51.3926C29.9034 49.532 30.6552 46.7061 31.3349 45.2928C32.0321 43.862 33.0345 42.7889 34.0355 42.4312C34.8944 42.1253 34.9301 42.1253 35.7708 42.3584Z" fill="black"/>
<path d="M33.8387 32.3946C32.032 33.1821 31.6029 35.5789 33.0162 36.9922C34.1789 38.1549 35.8246 38.1549 36.9873 36.9922C39.2049 34.7739 36.7185 31.143 33.8387 32.3946Z" fill="black"/>
</g>
<defs>
<clipPath id="clip0_198_165">
<rect width="70" height="70" fill="white"/>
</clipPath>
</defs>
</svg>
