<svg width="90" height="90" viewBox="0 0 90 90" fill="none" xmlns="http://www.w3.org/2000/svg">
<g clip-path="url(#clip0_198_174)">
<path d="M41.2299 1.19249C40.4514 1.5732 39.8466 2.35079 39.6045 3.25079C39.4488 3.83849 39.3102 4.01219 39.0339 4.01219C38.844 4.01219 37.7883 4.20209 36.6993 4.42709L34.7103 4.842L34.1046 4.16699C33.4476 3.4407 32.5134 2.97359 31.6836 2.97359C31.0959 2.97359 26.1495 4.91039 25.4232 5.42969C24.6798 5.94809 24.2469 6.95159 24.2469 8.12789V9.16559L23.0886 9.87479C22.4316 10.2726 21.4803 10.9125 20.9439 11.2932L19.9755 11.9853L19.2321 11.6046C18.3159 11.1204 17.1396 11.1033 16.2918 11.5353C15.4269 11.9853 11.8476 15.5817 11.5362 16.3431C11.1726 17.2251 11.2077 18.4185 11.6226 19.2483L11.9862 19.9404L10.5849 22.05L9.16652 24.1596L8.18103 24.1767C6.98762 24.1767 5.98502 24.6438 5.46572 25.4214C5.25782 25.7328 4.63592 27.0819 4.08242 28.431C2.71622 31.8375 2.75042 32.9796 4.29032 34.2414L4.91313 34.7607L4.56752 36.4554C4.37762 37.4067 4.16972 38.4615 4.11752 38.8071C4.03112 39.3084 3.90962 39.4641 3.65042 39.4641C3.20042 39.4641 2.11142 40.0176 1.73072 40.4496C1.02152 41.229 0.900024 41.9382 0.900024 45.0333C0.900024 47.5758 0.952224 48.1284 1.22852 48.7341C1.62632 49.599 2.54252 50.3424 3.39032 50.481C3.85742 50.5503 4.03022 50.6709 4.08242 50.9481C4.11662 51.1389 4.32452 52.1937 4.53242 53.2656L4.93022 55.2375L4.29032 55.7559C2.75132 57.0186 2.69912 58.2804 4.06532 61.5321C5.36223 64.6101 5.48372 64.818 6.29642 65.3715C6.91922 65.7693 7.17842 65.8386 8.19902 65.8215C8.83892 65.8044 9.37532 65.8557 9.37532 65.925C9.37532 65.9943 9.96302 66.9456 10.6893 68.0175L12.0033 69.9894L11.6397 70.7328C11.2077 71.5977 11.1726 72.7731 11.5362 73.6551C11.8647 74.4336 15.0813 77.7366 16.1019 78.3414C17.1054 78.9291 18.2637 78.9462 19.2672 78.4107L20.0106 77.9958L22.1724 79.4484L24.3342 80.8839L24.282 81.8694C24.2298 83.0106 24.6447 84.0141 25.4232 84.5676C26.2017 85.1382 31.0608 87.0237 31.7007 87.0237C32.5485 87.0066 33.6204 86.4702 34.2261 85.7439L34.7445 85.104L36.4563 85.4496C37.4076 85.6395 38.4453 85.8303 38.7738 85.8816C39.3273 85.9851 39.4137 86.0715 39.6036 86.7465C39.8457 87.6627 40.4685 88.4412 41.2641 88.8219C42.129 89.2197 47.8701 89.2197 48.735 88.8219C49.5306 88.4412 50.1534 87.6627 50.3775 86.7465C50.5503 86.0544 50.6367 85.9851 51.2073 85.8987C51.5529 85.8294 52.5906 85.6395 53.5419 85.4487L55.2537 85.1031L55.7721 85.743C56.3778 86.4693 57.4497 87.0057 58.2795 87.0228C58.9887 87.0228 63.8829 85.086 64.6614 84.4983C65.3535 83.9799 65.7855 82.8378 65.7162 81.7488L65.664 80.8839L67.8258 79.4484L69.9705 78.0129L70.6797 78.3936C71.6652 78.9642 72.8757 78.93 73.8792 78.3414C74.9169 77.7357 78.1335 74.4327 78.462 73.6551C78.8256 72.7731 78.7905 71.5968 78.3585 70.7328L77.9949 69.9894L79.4133 67.8627L80.8488 65.7351L81.4887 65.8386C82.3536 65.9772 83.3391 65.7 84.0483 65.1123C84.4803 64.7496 84.861 64.0224 85.6566 62.1207C86.9022 59.1462 87.0399 58.5063 86.7465 57.3471C86.5908 56.7072 86.3487 56.3436 85.8123 55.8594L85.086 55.2024L85.4667 53.2656C85.6746 52.1937 85.8816 51.1389 85.9167 50.9481C85.9689 50.6718 86.1417 50.5503 86.6088 50.481C87.4566 50.3424 88.3728 49.599 88.7706 48.7341C89.0478 48.1284 89.0991 47.5749 89.0991 45.0333C89.0991 41.9373 88.9776 41.229 88.2693 40.4505C87.8886 40.0185 86.7996 39.465 86.3496 39.465C86.0904 39.465 85.9689 39.3093 85.8825 38.808C85.8303 38.4624 85.6233 37.4067 85.4325 36.4563L85.0869 34.7616L85.7097 34.2423C87.2316 32.9976 87.2658 31.8384 85.8996 28.4319C85.3461 27.0828 84.7404 25.7337 84.5334 25.4223C83.997 24.6438 82.9944 24.1776 81.801 24.1596H80.8155L79.4151 22.0671L78.0318 19.9575L78.3774 19.2141C78.7752 18.315 78.8274 17.1909 78.4809 16.4124C78.3603 16.101 77.2362 14.8734 76.0257 13.6629C74.2617 11.9331 73.6389 11.4489 73.0854 11.2932C72.2376 11.0682 71.4078 11.1897 70.6473 11.6568L70.0938 11.9853L67.9149 10.5498L65.7531 9.1143V8.16299C65.736 7.00379 65.286 5.93189 64.6119 5.44769C63.8163 4.89419 58.905 2.97449 58.2822 2.97449C57.4695 2.99159 56.3796 3.52798 55.7919 4.22009L55.2906 4.8258L53.3016 4.42799C52.2117 4.203 51.1398 4.01308 50.9499 4.01308C50.6556 4.01308 50.535 3.85739 50.3793 3.25169C50.1543 2.33549 49.5324 1.55699 48.7368 1.17629C47.871 0.777596 42.0597 0.777596 41.2299 1.19249ZM48.978 14.976C55.9818 15.9102 62.0001 18.9882 66.9807 24.1938C70.8543 28.2402 73.5354 33.3765 74.7459 39.0321C75.2823 41.5053 75.4209 46.6065 75.0222 49.2525C73.5525 59.2659 67.2057 67.878 58.0914 72.2367C49.7727 76.2318 40.2435 76.2318 31.9428 72.2367C21.3759 67.1697 14.7177 56.5857 14.7348 44.9118C14.769 29.6928 26.1315 16.8777 41.3676 14.9238C43.1667 14.6826 47.0061 14.7168 48.978 14.976Z" fill="black"/>
<path d="M42.4926 17.432C38.2725 18.0377 35.6616 18.7982 32.7906 20.2337C29.9367 21.6692 27.9999 23.0696 25.6131 25.4564C21.6009 29.4686 19.2312 33.8264 17.9865 39.5342C17.658 41.0219 17.6058 41.8175 17.6058 44.9126C17.5887 48.077 17.64 48.7862 18.0036 50.4296C20.1132 60.3737 27.135 68.2604 36.5256 71.252C40.1058 72.3932 43.7715 72.8261 47.1096 72.5147C51.2082 72.134 53.7678 71.4077 57.3651 69.6437C63.729 66.5135 68.8311 60.6338 71.1135 53.8541C72.0819 50.9309 72.3582 49.3577 72.4455 45.7775C72.5148 42.9587 72.4797 42.1973 72.1683 40.3469C70.2315 28.9673 61.6365 20.1302 50.274 17.8469C48.6144 17.5013 43.7544 17.2421 42.4926 17.432ZM41.2641 26.1134C42.0939 29.0366 42.9939 31.8554 43.2531 32.3738C43.7895 33.4457 44.6886 34.172 45.2421 33.9992C45.7956 33.8606 46.6596 32.8058 47.0583 31.8032C47.3697 31.0076 49.4964 23.7437 50.0157 21.617C50.2236 20.8385 50.2578 20.8043 50.6907 20.8907C51.9876 21.185 54.8235 22.2398 56.1726 22.931C58.7151 24.2108 58.7664 23.4845 55.7577 28.88C52.6104 34.5176 52.0911 35.8667 52.6275 36.9215C52.9218 37.4579 53.1117 37.5614 53.9244 37.5614C55.0656 37.5614 55.9827 37.1465 61.0326 34.3448L65.8233 31.6646L66.1347 32.0624C67.1553 33.4115 69.4899 39.2912 69.1092 39.6197C69.0228 39.689 66.7053 40.3982 63.9378 41.1758C61.1883 41.9543 58.473 42.8012 57.9195 43.0433C56.2419 43.8038 55.6362 44.9279 56.3976 45.8972C57.0204 46.6757 58.4208 47.2283 63.6786 48.716C66.5838 49.5458 69.0048 50.2721 69.0912 50.3414C69.4548 50.687 67.0851 56.7233 66.0645 58.0202C65.8566 58.3145 65.5632 58.1759 61.776 56.0483C55.8612 52.7282 54.9963 52.3475 53.5095 52.4168C52.9218 52.451 52.4376 53.0396 52.4376 53.7308C52.4376 54.872 53.1297 56.411 55.7577 61.1153C58.248 65.5595 58.3515 65.8016 58.041 66.0437C56.8476 66.9086 52.1091 68.8625 50.7087 69.0704C50.2074 69.1397 50.3109 69.4511 48.5298 63.0692C47.2329 58.4 46.6965 57.0509 45.8838 56.3588C45.1917 55.7711 44.829 55.7711 44.1549 56.3246C43.3251 57.0338 42.858 58.2443 41.3703 63.5021C40.5918 66.2174 39.9348 68.5691 39.8826 68.7248C39.744 69.1568 39.2085 69.1226 37.3572 68.4998C35.8011 67.9805 32.6187 66.5279 31.9788 66.0266C31.6674 65.7845 31.806 65.5082 34.2792 61.0982C36.9423 56.3426 37.5651 54.9413 37.5651 53.8343C37.5651 52.8317 37.1844 52.4339 36.1989 52.4339C34.9191 52.4339 34.0893 52.7975 28.9701 55.6505C26.3412 57.1202 24.1623 58.3136 24.1452 58.3136C24.0246 58.3136 22.7268 55.8233 22.1562 54.5093C21.411 52.7813 20.736 50.516 20.9268 50.3423C20.9961 50.273 23.3136 49.5818 26.0631 48.8033C31.5279 47.2643 32.8599 46.763 33.4998 46.0016C34.1739 45.206 34.0875 44.4626 33.2406 43.7363C32.3244 42.9578 31.9266 42.8192 25.9254 41.1074L20.8746 39.6719L20.9268 39.1706C21.0303 38.3057 22.0167 35.6255 22.8636 33.9308C24.2127 31.2677 23.4693 31.2326 28.899 34.2764C33.8283 37.0259 35.0208 37.5623 36.18 37.5623C37.494 37.5623 37.8747 36.5939 37.3041 34.6913C37.1655 34.2242 35.8515 31.6646 34.3638 29.0015C31.9599 24.6779 31.7007 24.1415 31.9599 23.9516C32.4441 23.5889 34.8309 22.3955 35.8335 21.9977C36.6633 21.6692 39.3615 20.8214 39.6558 20.8043C39.7251 20.7872 40.4514 23.174 41.2641 26.1134Z" fill="black"/>
<path d="M43.5303 39.6899C41.9049 40.2434 40.608 41.3675 39.9681 42.8372C39.4839 43.9442 39.4497 45.6047 39.8817 46.9016C40.3317 48.2156 41.7843 49.6691 43.0983 50.1182C44.361 50.5502 46.0557 50.516 47.1276 50.0489C48.2517 49.5476 49.5486 48.2678 50.0328 47.195C50.9148 45.2231 50.4306 42.6464 48.8916 41.1074C47.5767 39.7934 45.1557 39.1535 43.5303 39.6899Z" fill="black"/>
</g>
<defs>
<clipPath id="clip0_198_174">
<rect width="90" height="90" fill="white"/>
</clipPath>
</defs>
</svg>
