<svg width="80" height="80" viewBox="0 0 80 80" fill="none" xmlns="http://www.w3.org/2000/svg">
<path d="M23.12 23.6927C22.104 24.1079 21.8272 25.4927 22.5816 26.3391L23.028 26.8471L25.044 26.8935L27.06 26.9551V28.5399V30.1399L17.9504 30.1863C9.64079 30.2327 8.74879 30.2631 7.97919 30.5247C4.62479 31.6327 2.25519 33.9407 1.17759 37.1567C0.684794 38.6799 0.669594 41.4343 1.16159 43.0039C1.62319 44.4815 2.48479 45.8815 3.60799 46.9895C5.22399 48.6055 7.30079 49.5903 9.48639 49.7903L10.5944 49.8983V52.6223C10.5944 55.1463 10.6248 55.3767 10.9176 55.7463C11.0872 55.9775 11.4872 56.2231 11.7944 56.3159C12.1944 56.4391 17.5032 56.4695 29.0136 56.4391L45.6784 56.3927L46.1712 55.8847L46.6792 55.3919L46.7256 43.6815C46.756 35.6951 46.7104 31.7863 46.6024 31.3711C46.4792 30.9399 46.2792 30.6631 45.9408 30.4631C45.464 30.1711 45.1096 30.1551 37.8776 30.1551H30.2912V28.5391V26.9231H31.984C33.1072 26.9231 33.8616 26.8463 34.2152 26.7079C34.7536 26.4767 35.2152 25.7999 35.2152 25.2303C35.2152 24.6607 34.7536 23.9839 34.2152 23.7527C33.784 23.5831 32.6608 23.5375 28.568 23.5527C25.7512 23.5535 23.2896 23.6151 23.12 23.6927ZM10.5944 40.0807V46.6359L9.79439 46.5287C8.14799 46.3135 6.90159 45.6823 5.79359 44.4975C3.00799 41.5271 3.57759 36.9567 7.02479 34.5871C7.88639 33.9871 9.11759 33.5559 9.94879 33.5407H10.5952V40.0807H10.5944Z" fill="black"/>
<path d="M61.9896 31.54C55.4344 32.2936 50.0488 32.9096 50.0328 32.9096C49.956 32.9408 49.9864 44.4656 50.048 44.4656C50.2944 44.4656 75.5152 33.1552 75.7304 32.94C76.1 32.5704 76.2688 31.8632 76.1152 31.2624C75.9456 30.6472 75.2072 30.1544 74.4536 30.1696C74.1616 30.1864 68.5448 30.8016 61.9896 31.54Z" fill="black"/>
<path d="M72.3 38.4183C71.8072 38.6183 70.1152 40.0647 68.9296 41.3263C68.0528 42.2495 67.5136 42.9727 67.1136 43.8191C66.544 44.9735 66.5288 45.0503 66.5288 46.6967C66.5288 48.2815 66.5592 48.4511 67.0208 49.4359C67.6368 50.7439 68.7288 51.8207 70.0984 52.4983C71.0832 52.9751 71.2368 53.0063 72.7608 53.0063C74.8072 52.9911 75.7616 52.6527 77.0696 51.4519C78.6856 49.9591 79.332 48.3743 79.1776 46.2503C79.116 45.2191 78.9928 44.8351 78.4392 43.7111C77.9008 42.6183 77.5312 42.1415 76.2384 40.8487C74.1 38.7263 73.084 38.0951 72.3 38.4183ZM73.7304 42.9271C76.008 45.0047 76.5464 47.1743 75.1768 48.7287C74.1768 49.8671 72.776 50.1447 71.4224 49.4671C69.8224 48.6671 69.268 47.0047 70.0528 45.3127C70.4064 44.5279 72.4528 42.1583 72.776 42.1583C72.8384 42.1575 73.2688 42.5119 73.7304 42.9271Z" fill="black"/>
</svg>
