<svg width="80" height="70" viewBox="0 0 80 70" fill="none" xmlns="http://www.w3.org/2000/svg">
<path d="M68.824 4.46599L63.368 22.281C63.128 23.058 62.208 23.527 61.32 23.317L53.136 21.399C52.248 21.189 51.712 20.384 51.952 19.607L57.408 1.79199C57.648 1.01499 58.568 0.545989 59.456 0.755989L67.632 2.67399C68.528 2.87699 69.064 3.68199 68.824 4.46599ZM44.816 25.424V16.051H50.44L52.856 8.01499H29.504L26.984 16.051H35.176V25.368C30.728 26.999 27.584 30.849 27.584 35.322C27.584 39.802 30.72 43.652 35.176 45.283V54.6H28.448V62.636H51.536V54.593H44.816V45.227C49.184 43.568 52.248 39.76 52.248 35.322C52.248 30.891 49.184 27.083 44.816 25.424ZM28.048 4.46599L22.592 22.281C22.352 23.058 21.432 23.527 20.544 23.317L12.36 21.399C11.472 21.189 10.936 20.384 11.176 19.607L16.632 1.79199C16.872 1.01499 17.792 0.545989 18.68 0.755989L26.864 2.67399C27.752 2.87699 28.28 3.68199 28.048 4.46599ZM25.52 67.837V49.392C25.52 48.587 24.768 47.929 23.848 47.929H15.376C14.456 47.929 13.704 48.587 13.704 49.392V67.837C13.704 68.642 14.456 69.3 15.376 69.3H23.84C24.768 69.3 25.52 68.642 25.52 67.837ZM66.304 67.837V49.392C66.304 48.587 65.552 47.929 64.632 47.929H56.16C55.24 47.929 54.488 48.587 54.488 49.392V67.837C54.488 68.642 55.24 69.3 56.16 69.3H64.632C65.544 69.3 66.304 68.642 66.304 67.837ZM39.92 30.779C42.792 30.779 45.112 32.802 45.112 35.322C45.112 37.828 42.792 39.865 39.92 39.865C37.04 39.865 34.728 37.842 34.728 35.322C34.736 32.802 37.04 30.779 39.92 30.779Z" fill="black"/>
</svg>
