<svg width="80" height="80" viewBox="0 0 80 80" fill="none" xmlns="http://www.w3.org/2000/svg">
<g clip-path="url(#clip0_198_217)">
<path d="M21.9667 2.20006C29.7667 -3.83328 38.2333 3.53339 40.1333 15.0001C41.5667 15.0001 42.9667 15.4001 44.2333 16.1334C45.9667 14.1334 47.5 11.4001 46.9 8.33339C45.5 1.16672 53.5333 -4.63328 61.1667 5.26673C67.2 13.0667 59.8333 21.5334 48.3333 23.4334C48.3333 24.8667 47.9667 26.3001 47.2 27.5667C49.2 29.2667 51.9333 30.8001 55 30.2001C62.1 28.8001 67.9333 36.8001 58.0333 44.4667C50.2333 50.5001 41.7667 43.1334 39.8667 31.6667C38.4333 31.6667 37.0333 31.2334 35.8 30.5001C34.0667 32.5001 32.5 35.2667 33.1 38.3334C34.5 45.4667 26.4667 51.3001 18.8333 41.4001C12.7667 33.5667 20.1667 25.1001 31.6667 23.2334C31.6667 21.8001 32.1 20.4001 32.8333 19.1334C30.8333 17.4334 28.1 15.8667 25 16.4667C17.9 17.8667 12.0667 9.86672 21.9667 2.20006ZM16.6667 53.3334H23.3333C25.1014 53.3334 26.7971 54.0358 28.0474 55.286C29.2976 56.5363 30 58.232 30 60.0001V80.0001H23.3333V73.3334H16.6667V80.0001H10V60.0001C10 58.232 10.7024 56.5363 11.9526 55.286C13.2029 54.0358 14.8986 53.3334 16.6667 53.3334ZM16.6667 60.0001V66.6667H23.3333V60.0001H16.6667ZM43.1 53.3334H50L40.2333 80.0001H33.3333L43.1 53.3334ZM60 53.3334H70V60.0001H60V73.3334H70V80.0001H60C58.2319 80.0001 56.5362 79.2977 55.286 78.0474C54.0357 76.7972 53.3333 75.1015 53.3333 73.3334V60.0001C53.3333 58.232 54.0357 56.5363 55.286 55.286C56.5362 54.0358 58.2319 53.3334 60 53.3334Z" fill="black"/>
</g>
<defs>
<clipPath id="clip0_198_217">
<rect width="80" height="80" fill="white"/>
</clipPath>
</defs>
</svg>
