<svg width="21" height="21" viewBox="0 0 21 21" fill="none" xmlns="http://www.w3.org/2000/svg">
<path d="M6.80052 2.13396L7.74202 1.83296C8.6249 1.55121 9.56815 2.00708 9.94615 2.89783L10.6986 4.67233C11.0259 5.44496 10.8439 6.35408 10.2489 6.91933L8.59077 8.49258C8.69315 9.43408 9.0099 10.3607 9.54015 11.2725C10.0437 12.1546 10.7191 12.9267 11.5264 13.5431L13.5179 12.8781C14.2721 12.627 15.0946 12.9166 15.5566 13.5965L16.6355 15.1802C17.1736 15.9712 17.0765 17.0615 16.4089 17.7317L15.694 18.4501C14.9818 19.165 13.9641 19.4248 13.0235 19.1308C10.801 18.4378 8.75965 16.3807 6.8959 12.9595C5.02952 9.53296 4.37065 6.62446 4.92015 4.23746C5.15115 3.23296 5.86602 2.43233 6.80052 2.13396Z" fill="black"/>
</svg>
